<?xml version="1.0" encoding="UTF-8"?>
<svg viewBox="0 0 101 100" xmlns="http://www.w3.org/2000/svg">
<circle cx="50" cy="50" r="50" fill="#FFC107"/>
<path d="m24.629 6.8742 2.7451 4.8318c0.5424 0.9542 1.5258 1.5394 2.5878 1.5394h65.638c2.9823 0 5.4001 2.5263 5.4001 5.6433v71.139c0 3.1162-2.4178 5.6425-5.4001 5.6425h-66.251c-16.706-7.8005-28.348-25.314-28.348-45.669 0-18.378 9.491-34.437 23.629-43.126z" fill="#484848"/>
<path d="m28.499 18.889v71.139c0 3.1162 2.4178 5.6425 5.4001 5.6425h-4.5502c-16.706-7.8005-28.348-25.314-28.348-45.669 0-18.378 9.491-34.437 23.629-43.126l2.7451 4.8318c0.5424 0.9542 1.5258 1.5394 2.5878 1.5394h3.9368c-2.9823 8e-4 -5.4001 2.5271-5.4001 5.6433z" fill="#FFC107"/>
<path d="m52.17 50.615h-17.821c-0.8743 0-1.5831 0.7406-1.5831 1.6541v18.621c0 0.9686-0.7927 1.7283-1.7166 1.6502-10.922-0.9207-19.489-10.552-19.334-22.238 0.1579-11.848 9.4116-21.518 20.75-21.682 11.185-0.1627 20.402 8.789 21.283 20.202 0.0748 0.9654-0.6523 1.7937-1.5792 1.7937z" fill="#EDEDED"/>
<path d="m59.462 58.385c-0.8309 10.712-9.0065 19.255-19.259 20.123-0.927 0.0781-1.7243-0.6776-1.7243-1.6494v-18.622c0-0.9136 0.7096-1.6541 1.5839-1.6541h17.821c0.93 0 1.654 0.833 1.5785 1.8016z" fill="#EDEDED"/>
<path d="m47.23 65.67v0.0853c0 3.6272 1.8898 6.4524 4.467 7.9448-3.1944 2.6969-7.1571 4.4411-11.494 4.8086-0.927 0.0781-1.7235-0.6776-1.7235-1.6494v-18.621c0-0.9144 0.7087-1.6549 1.5831-1.6549h15.863c-4.8027 0-8.696 4.068-8.696 9.0863z" fill="#EDEDED"/>
<path d="m88.287 40.264h-20.014c-0.9529 0-1.7257 0.8076-1.7257 1.8033 0 0.9964 0.7728 1.8032 1.7257 1.8032h20.014c0.9536 0 1.7257-0.8068 1.7257-1.8032 0-0.9957-0.7721-1.8033-1.7257-1.8033z" fill="#EDEDED"/>
<path d="m88.287 48.197h-20.014c-0.9529 0-1.7257 0.8076-1.7257 1.8033s0.7728 1.8032 1.7257 1.8032h20.014c0.9536 0 1.7257-0.8075 1.7257-1.8032s-0.7721-1.8033-1.7257-1.8033z" fill="#EDEDED"/>
<path d="m88.287 56.131h-20.014c-0.9529 0-1.7257 0.8067-1.7257 1.8024 0 0.9965 0.7728 1.8033 1.7257 1.8033h20.014c0.9536 0 1.7257-0.8068 1.7257-1.8033 0-0.9957-0.7721-1.8024-1.7257-1.8024z" fill="#EDEDED"/>
<path d="m88.287 68.03h-12.17c-0.953 0-1.7258 0.8075-1.7258 1.8032s0.7728 1.8032 1.7258 1.8032h12.17c0.9536 0 1.7257-0.8075 1.7257-1.8032s-0.7721-1.8032-1.7257-1.8032z" fill="#EDEDED"/>
<path d="m69.904 68.03h-1.6304c-0.9536 0-1.7257 0.8075-1.7257 1.8032s0.7721 1.8032 1.7257 1.8032h1.6304c0.9537 0 1.7258-0.8075 1.7258-1.8032s-0.7721-1.8032-1.7258-1.8032z" fill="#EDEDED"/>
<path d="m88.287 75.964h-12.17c-0.953 0-1.7258 0.8076-1.7258 1.8033 0 0.9956 0.7728 1.8024 1.7258 1.8024h12.17c0.9536 0 1.7257-0.8068 1.7257-1.8024 0-0.9965-0.7721-1.8033-1.7257-1.8033z" fill="#EDEDED"/>
<path d="m69.904 75.964h-1.6304c-0.9536 0-1.7257 0.8076-1.7257 1.8033 0 0.9956 0.7721 1.8024 1.7257 1.8024h1.6304c0.9537 0 1.7258-0.8068 1.7258-1.8024 0-0.9965-0.7721-1.8033-1.7258-1.8033z" fill="#EDEDED"/>
<path d="m29.718 40.264h-1.6312c-0.9529 0-1.725 0.8076-1.725 1.8033 0 0.9964 0.7721 1.8032 1.725 1.8032h1.6312c0.9529 0 1.7258-0.8068 1.7258-1.8032 0-0.9957-0.7729-1.8033-1.7258-1.8033z" fill="#484848"/>
<path d="m48.053 64.17h-1.6312c-0.9529 0-1.7257 0.8076-1.7257 1.8033s0.7728 1.8032 1.7257 1.8032h1.6312c0.9529 0 1.7258-0.8075 1.7258-1.8032s-0.7729-1.8033-1.7258-1.8033z" fill="#484848"/>
<path d="m78.76 32.331h-10.486c-0.9529 0-1.7257 0.8068-1.7257 1.8033 0 0.9956 0.7728 1.8024 1.7257 1.8024h10.486c0.9529 0 1.7258-0.8068 1.7258-1.8024 0-0.9965-0.7729-1.8033-1.7258-1.8033z" fill="#EDEDED"/>
<path d="m73.896 42.067c0 0.9956 0.7721 1.8032 1.725 1.8032h-7.3471c-0.9536 0-1.7257-0.8076-1.7257-1.8032 0-0.9957 0.7721-1.8033 1.7257-1.8033h7.3471c-0.9529 0-1.725 0.8076-1.725 1.8033z" fill="#EDEDED"/>
<path d="m73.896 50c0 0.9957 0.7721 1.8032 1.725 1.8032h-7.3471c-0.9536 0-1.7257-0.8075-1.7257-1.8032s0.7721-1.8033 1.7257-1.8033h7.3471c-0.9529 0-1.725 0.8076-1.725 1.8033z" fill="#EDEDED"/>
<path d="m73.896 57.933c0 0.9965 0.7721 1.8033 1.725 1.8033h-7.3471c-0.9536 0-1.7257-0.8068-1.7257-1.8033 0-0.9957 0.7721-1.8024 1.7257-1.8024h7.3471c-0.9529 0-1.725 0.8067-1.725 1.8024z" fill="#EDEDED"/>
<path d="m81.739 69.834c0 0.9957 0.7721 1.8032 1.7257 1.8032h-7.3478c-0.953 0-1.7258-0.8075-1.7258-1.8032s0.7728-1.8032 1.7258-1.8032h7.3478c-0.9536 0-1.7257 0.8075-1.7257 1.8032z" fill="#EDEDED"/>
<path d="m81.739 77.767c0 0.9956 0.7721 1.8024 1.7257 1.8024h-7.3478c-0.953 0-1.7258-0.8068-1.7258-1.8024 0-0.9957 0.7728-1.8033 1.7258-1.8033h7.3478c-0.9536 0-1.7257 0.8068-1.7257 1.8033z" fill="#EDEDED"/>
<path d="m73.896 34.134c0 0.9956 0.7721 1.8024 1.725 1.8024h-7.3471c-0.9536 0-1.7257-0.8068-1.7257-1.8024 0-0.9965 0.7721-1.8033 1.7257-1.8033h7.3471c-0.9529 0-1.725 0.8068-1.725 1.8033z" fill="#EDEDED"/>
<path d="m23.069 39.263c0 6.1359 4.406 11.194 10.091 11.917-0.2441 0.291-0.3937 0.6712-0.3937 1.089v18.622c0 0.9685-0.7927 1.7275-1.7166 1.6501-10.922-0.9215-19.489-10.552-19.334-22.239 0.1388-10.419 7.3127-19.152 16.753-21.22-3.2425 2.1229-5.4001 5.888-5.4001 10.181z" fill="#EDEDED"/>
</svg>
