<svg width="500" height="500" xmlns="http://www.w3.org/2000/svg">

 <g>
  <title>background</title>
  <rect fill="none" id="canvas_background" height="402" width="582" y="-1" x="-1"/>
 </g>
 <g>
  <title>Layer 1</title>
  <line id="svg_2" y2="82.696" y1="82.696" x2="397.066" x1="363.459" stroke-width="10" stroke-miterlimit="2.6131" stroke-linejoin="round" stroke-linecap="round" stroke="#000000" fill="none"/>
  <path stroke="#000000" id="svg_3" stroke-width="10" stroke-miterlimit="2.6131" stroke-linejoin="round" stroke-linecap="round" fill="none" d="m397.066,82.696c11.988,0 21.689,9.811 21.689,21.939"/>
  <line id="svg_4" y2="453.047" y1="104.636" x2="418.756" x1="418.756" stroke-width="10" stroke-miterlimit="2.6131" stroke-linejoin="round" stroke-linecap="round" stroke="#000000" fill="none"/>
  <path id="svg_5" stroke-width="10" stroke-miterlimit="2.6131" stroke-linejoin="round" stroke-linecap="round" stroke="#000000" fill="none" d="m418.756,453.047c0,12.114 -9.701,21.953 -21.689,21.953"/>
  <line id="svg_6" y2="475" y1="475" x2="102.932" x1="397.066" stroke-width="10" stroke-miterlimit="2.6131" stroke-linejoin="round" stroke-linecap="round" stroke="#000000" fill="none"/>
  <path id="svg_7" stroke-width="10" stroke-miterlimit="2.6131" stroke-linejoin="round" stroke-linecap="round" stroke="#000000" fill="none" d="m102.932,475c-11.975,0 -21.688,-9.839 -21.688,-21.953"/>
  <line id="svg_8" y2="104.636" y1="453.047" x2="81.244" x1="81.244" stroke-width="10" stroke-miterlimit="2.6131" stroke-linejoin="round" stroke-linecap="round" stroke="#000000" fill="none"/>
  <path id="svg_9" stroke-width="10" stroke-miterlimit="2.6131" stroke-linejoin="round" stroke-linecap="round" stroke="#000000" fill="none" d="m81.244,104.636c0,-12.128 9.713,-21.939 21.688,-21.939"/>
  <line id="svg_10" y2="82.696" y1="82.696" x2="131.906" x1="102.932" stroke-width="10" stroke-miterlimit="2.6131" stroke-linejoin="round" stroke-linecap="round" stroke="#000000" fill="none"/>
  <polyline id="svg_11" stroke-width="10" stroke-miterlimit="2.6131" stroke-linejoin="round" stroke-linecap="round" stroke="#000000" points="   342.859,50.625 286.991,50.625 286.991,45.851  " fill="none"/>
  <path id="svg_12" stroke-width="10" stroke-miterlimit="2.6131" stroke-linejoin="round" stroke-linecap="round" stroke="#000000" fill="none" d="m286.991,45.851c0,-11.542 -9.24,-20.851 -20.571,-20.851"/>
  <line id="svg_13" y2="25" y1="25" x2="233.621" x1="266.42" stroke-width="10" stroke-miterlimit="2.6131" stroke-linejoin="round" stroke-linecap="round" stroke="#000000" fill="none"/>
  <path id="svg_14" stroke-width="10" stroke-miterlimit="2.6131" stroke-linejoin="round" stroke-linecap="round" stroke="#000000" fill="none" d="m233.621,25c-11.359,0 -20.627,9.309 -20.627,20.851"/>
  <polyline id="svg_15" stroke-width="10" stroke-miterlimit="2.6131" stroke-linejoin="round" stroke-linecap="round" stroke="#000000" points="   212.994,45.851 212.994,50.625 157.181,50.625  " fill="none"/>
  <path id="svg_16" stroke-width="10" stroke-miterlimit="2.6131" stroke-linejoin="round" stroke-linecap="round" stroke="#000000" fill="none" d="m157.181,50.625c-11.374,0 -20.599,9.35 -20.599,20.878"/>
  <polyline id="svg_17" stroke-width="10" stroke-miterlimit="2.6131" stroke-linejoin="round" stroke-linecap="round" stroke="#000000" points="   136.582,71.503 136.582,115.857 363.459,115.857 363.459,71.503  " fill="none"/>
  <path id="svg_18" stroke-width="10" stroke-miterlimit="2.6131" stroke-linejoin="round" stroke-linecap="round" stroke="#000000" fill="none" d="m363.459,71.503c0,-11.528 -9.184,-20.878 -20.6,-20.878"/>
  <line id="svg_20" y2="238.492" y1="221.173" x2="156.218" x1="137.6" stroke-width="10" stroke-miterlimit="2.6131" stroke-linejoin="round" stroke-linecap="round" stroke="#000000" fill="none"/>
  <line id="svg_21" y2="238.492" y1="200.699" x2="156.218" x1="190.412" stroke-width="10" stroke-miterlimit="2.6131" stroke-linejoin="round" stroke-linecap="round" stroke="#000000" fill="none"/>
  <line id="svg_22" y2="223.462" y1="223.462" x2="362.44" x1="222.875" stroke-width="10" stroke-miterlimit="2.6131" stroke-linejoin="round" stroke-linecap="round" stroke="#000000" fill="none"/>
  <line id="svg_23" y2="392.56" y1="392.56" x2="362.44" x1="222.875" stroke-width="10" stroke-miterlimit="2.6131" stroke-linejoin="round" stroke-linecap="round" stroke="#000000" fill="none"/>
  <line id="svg_24" y2="309.239" y1="309.239" x2="362.44" x1="222.875" stroke-width="10" stroke-miterlimit="2.6131" stroke-linejoin="round" stroke-linecap="round" stroke="#000000" fill="none"/>
 </g>
</svg>