<svg width="40" height="40" viewBox="0 0 40 40" fill="none" xmlns="http://www.w3.org/2000/svg">
<path d="M39.0224 9.22805C37.3388 6.89412 33.7184 5.92458 28.8402 6.48106C28.6679 6.49894 28.4853 6.52594 28.3129 6.54382C28.242 6.40041 28.1711 6.25664 28.0899 6.11322C25.9907 2.17227 23.1206 0 19.997 0C16.8733 0 13.9933 2.17227 11.904 6.11322C11.8331 6.25664 11.7519 6.40041 11.681 6.54382C11.4984 6.51717 11.3261 6.49894 11.1537 6.48106C6.26565 5.91546 2.65514 6.89412 0.971508 9.22805C-0.71173 11.562 -0.194755 14.8742 2.42181 18.5546C2.76686 19.0396 3.14201 19.5242 3.54767 20C3.14201 20.4846 2.76686 20.9604 2.42181 21.445C-0.194755 25.1254 -0.71173 28.4468 0.971508 30.772C2.3406 32.6749 4.99797 33.6715 8.57757 33.6715C9.43563 33.6673 10.2925 33.6164 11.1434 33.5186C11.3158 33.5007 11.4984 33.4737 11.6707 33.4558C11.742 33.5996 11.8129 33.743 11.8941 33.8868C13.9933 37.8274 16.8634 40 19.9867 40C23.1103 40 25.9907 37.8274 28.0796 33.8868C28.1505 33.743 28.2317 33.5996 28.3026 33.4558C28.4853 33.4828 28.6576 33.5007 28.8303 33.5186C29.6804 33.6206 30.5377 33.6715 31.3958 33.6715C34.9758 33.6715 37.6327 32.6749 39.0018 30.772C40.6855 28.438 40.1681 25.1254 37.5519 21.445C37.2069 20.9604 36.8317 20.4758 36.4261 20C36.8317 19.5151 37.2069 19.0396 37.5519 18.5546C40.1986 14.8654 40.716 11.5529 39.0224 9.22805V9.22805ZM13.7398 6.87624C15.4535 3.64465 17.7354 1.79533 19.997 1.79533C22.2586 1.79533 24.5404 3.64465 26.2542 6.87624C26.2553 6.8829 26.2589 6.88921 26.2645 6.89412C24.1102 7.35277 22.009 7.98675 19.9867 8.78798C17.9667 7.98289 15.8647 7.34856 13.7093 6.89412C13.7295 6.89412 13.7295 6.885 13.7398 6.87624V6.87624ZM29.1346 20C29.1349 21.4363 29.047 22.8718 28.8707 24.2997C27.6066 25.2026 26.2862 26.0417 24.9156 26.8131C23.3337 27.7122 21.6873 28.519 19.9867 29.228C18.2896 28.5134 16.6432 27.7069 15.0582 26.8131C13.6891 26.0396 12.3687 25.2005 11.103 24.2997C10.7512 21.4415 10.7512 18.5581 11.103 15.7C13.8365 13.7556 16.8183 12.1016 19.9867 10.772C21.6842 11.4862 23.3302 12.2927 24.9156 13.1865C26.2847 13.9601 27.605 14.7992 28.8707 15.7C29.047 17.1282 29.1349 18.5634 29.1346 20V20ZM31.0713 17.3877C32.0645 18.2064 32.9994 19.0788 33.8705 20C32.9994 20.9208 32.0645 21.7932 31.0713 22.612C31.1323 21.7504 31.1628 20.8798 31.1628 20C31.1628 19.1202 31.1323 18.2496 31.0713 17.3877ZM28.4548 26.8492C28.1347 28.4033 27.67 29.9314 27.0655 31.4182C25.4904 31.1033 23.9446 30.6832 22.4412 30.1615C23.6376 29.605 24.8344 28.9945 26.0208 28.3304C26.8527 27.8546 27.664 27.3608 28.4548 26.8492V26.8492ZM17.5527 30.1615C16.0521 30.6899 14.5056 31.1103 12.9285 31.4182C12.324 29.9314 11.8593 28.4033 11.5392 26.8492C12.32 27.3608 13.1313 27.8546 13.9731 28.3213C15.1596 28.9945 16.3564 29.605 17.5527 30.1615ZM8.92262 22.612C7.92947 21.7932 6.99496 20.9208 6.12343 20C6.99496 19.0788 7.92947 18.2064 8.92262 17.3877C8.86161 18.2496 8.83111 19.1202 8.83111 20C8.83111 20.8798 8.86161 21.7504 8.92262 22.612ZM11.5392 13.1508C11.8593 11.5963 12.324 10.0682 12.9285 8.5818C14.5036 8.89633 16.0497 9.31641 17.5527 9.83853C16.3564 10.395 15.1596 11.0055 13.9731 11.6696C13.1412 12.1454 12.3299 12.6392 11.5392 13.1508ZM26.0109 11.6696C24.8344 11.0055 23.6376 10.3859 22.4309 9.83853C23.9315 9.3101 25.4781 8.88967 27.0556 8.5818C27.6597 10.0682 28.1244 11.5963 28.4449 13.1508C27.664 12.6392 26.8527 12.1454 26.0109 11.6696ZM4.13595 17.5942C1.98565 14.5779 1.45838 11.8762 2.67535 10.1885C3.64908 8.84198 5.75858 8.11473 8.60808 8.11473C9.37106 8.11754 10.1333 8.16277 10.8899 8.24938H10.9101C10.0897 10.361 9.51882 12.542 9.20666 14.7574C7.64385 15.9114 6.18879 17.1755 4.85575 18.5367C4.60222 18.2317 4.35898 17.9175 4.13595 17.5942ZM10.88 31.7415C10.1233 31.8285 9.36116 31.8733 8.59817 31.8762C5.74828 31.8762 3.63878 31.158 2.66544 29.8024C1.44847 28.1147 1.97575 25.413 4.12565 22.3967C4.34868 22.0825 4.59231 21.7592 4.84585 21.445C6.17849 22.8066 7.63355 24.0703 9.19636 25.2243C9.50892 27.4401 10.0798 29.6211 10.9002 31.7324C10.9002 31.7415 10.8899 31.7415 10.88 31.7415ZM26.2542 33.1238C24.5404 36.3553 22.2586 38.2047 19.997 38.2047C17.7354 38.2047 15.4535 36.3553 13.7398 33.1238C13.7386 33.1171 13.735 33.1108 13.7295 33.1059C15.8838 32.6472 17.9849 32.0133 20.0073 31.2117C22.0272 32.0171 24.1292 32.6514 26.2847 33.1059C26.2645 33.1059 26.2645 33.1146 26.2542 33.1238ZM35.858 22.4058C38.0083 25.4217 38.5356 28.1238 37.3186 29.8115C36.1016 31.4989 33.1099 32.2082 29.114 31.7415H29.0937C29.9142 29.6299 30.4854 27.4488 30.7976 25.2334C32.3604 24.0795 33.8155 22.8154 35.1481 21.4541C35.3917 21.7683 35.635 22.0825 35.858 22.4058V22.4058ZM30.7873 14.7666C30.4751 12.5508 29.9043 10.3698 29.0838 8.2585H29.104C33.0996 7.80055 36.0913 8.5008 37.3083 10.1885C38.5253 11.8762 37.998 14.5779 35.8481 17.5942C35.6251 17.9084 35.3814 18.2317 35.1279 18.5459C33.8012 17.1822 32.3493 15.9181 30.7873 14.7666Z" fill="#484848"/>
<path d="M19.997 16.4451C17.779 16.4451 15.9808 18.0367 15.9808 19.9999C15.9808 21.9632 17.779 23.5545 19.997 23.5545C22.215 23.5545 24.0131 21.9632 24.0131 19.9999C24.0116 18.037 22.2142 16.4465 19.997 16.4451ZM19.997 21.7592C18.8993 21.7592 18.0091 20.9716 18.0091 19.9999C18.0091 19.0283 18.8993 18.2404 19.997 18.2404C21.0947 18.2404 21.9849 19.0283 21.9849 19.9999C21.9829 20.9709 21.0939 21.7578 19.997 21.7592Z" fill="#484848"/>
</svg>
