<?xml version="1.0" encoding="UTF-8"?>
<svg viewBox="0 0 100 100" xmlns="http://www.w3.org/2000/svg">
<path d="m47.852 0c-7.1022 0-13.843 1.5495-19.904 4.3259l-4.6974 84.576c7.1892 4.3175 15.604 6.8024 24.601 6.8024 26.428 0 47.852-21.424 47.852-47.852 0-26.428-21.424-47.852-47.852-47.852z" fill="#fff"/>
<path d="m23.629 89.125 2.7451-4.6242c0.5424-0.9133 1.5258-1.4733 2.5878-1.4733h65.638c2.9823 0 5.4001-2.4177 5.4001-5.4008v-68.082c0-2.9823-2.4178-5.4001-5.4001-5.4001h-66.251c-16.706 7.4653-28.348 24.226-28.348 43.707 0 17.589 9.491 32.957 23.629 41.274z" fill="#484848"/>
<path d="m27.499 77.627v-68.082c0-2.9823 2.4178-5.4001 5.4001-5.4001h-4.5502c-16.706 7.4653-28.348 24.226-28.348 43.707 0 17.589 9.491 32.957 23.629 41.274l2.7451-4.6242c0.5424-0.9133 1.5258-1.4733 2.5878-1.4733h3.9368c-2.9823-7e-4 -5.4001-2.4185-5.4001-5.4008z" fill="#EDEDED"/>
<path d="m51.17 47.263h-17.821c-0.8744 0-1.5831-0.7088-1.5831-1.5831v-17.821c0-0.927-0.7927-1.6541-1.7167-1.5793-10.922 0.8812-19.489 10.099-19.334 21.283 0.1579 11.339 9.4116 20.593 20.75 20.75 11.185 0.1556 20.402-8.4114 21.283-19.334 0.0748-0.9239-0.6523-1.7166-1.5793-1.7166z" fill="#f00"/>
<path d="m58.462 39.827c-0.8308-10.252-9.0065-18.428-19.259-19.259-0.927-0.0748-1.7242 0.6485-1.7242 1.5785v17.822c0 0.8743 0.7095 1.5831 1.5838 1.5831h17.821c0.93 0 1.654-0.7973 1.5785-1.7243z" fill="#4285F4"/>
<path d="m46.23 32.855v-0.0816c0-3.4714 1.8898-6.1753 4.4671-7.6035-3.1945-2.581-7.1572-4.2503-11.494-4.602-0.927-0.0748-1.7235 0.6485-1.7235 1.5785v17.821c0 0.8751 0.7088 1.5839 1.5831 1.5839h15.863c-4.8027 0-8.696-3.8933-8.696-8.696z" fill="#4285F4"/>
<path d="m87.287 57.17h-20.013c-0.9529 0-1.7257-0.7729-1.7257-1.7258 0-0.9536 0.7728-1.7257 1.7257-1.7257h20.013c0.9537 0 1.7258 0.7721 1.7258 1.7257 0 0.9529-0.7721 1.7258-1.7258 1.7258z" fill="#FFC107"/>
<path d="m87.287 49.577h-20.013c-0.9529 0-1.7257-0.7728-1.7257-1.7257s0.7728-1.7258 1.7257-1.7258h20.013c0.9537 0 1.7258 0.7729 1.7258 1.7258s-0.7721 1.7257-1.7258 1.7257z" fill="#FFC107"/>
<path d="m87.287 41.985h-20.013c-0.9529 0-1.7257-0.7721-1.7257-1.725 0-0.9537 0.7728-1.7258 1.7257-1.7258h20.013c0.9537 0 1.7258 0.7721 1.7258 1.7258 0 0.9529-0.7721 1.725-1.7258 1.725z" fill="#FFC107"/>
<path d="m87.287 30.596h-12.17c-0.9529 0-1.7258-0.7729-1.7258-1.7258s0.7729-1.7257 1.7258-1.7257h12.17c0.9537 0 1.7258 0.7728 1.7258 1.7257s-0.7721 1.7258-1.7258 1.7258z" fill="#FFC107"/>
<path d="m68.904 30.596h-1.6304c-0.9537 0-1.7257-0.7729-1.7257-1.7258s0.772-1.7257 1.7257-1.7257h1.6304c0.9537 0 1.7258 0.7728 1.7258 1.7257s-0.7721 1.7258-1.7258 1.7258z" fill="#EDEDED"/>
<path d="m87.287 23.003h-12.17c-0.9529 0-1.7258-0.7729-1.7258-1.7258s0.7729-1.725 1.7258-1.725h12.17c0.9537 0 1.7258 0.7721 1.7258 1.725 0 0.9537-0.7721 1.7258-1.7258 1.7258z" fill="#FFC107"/>
<path d="m68.904 23.003h-1.6304c-0.9537 0-1.7257-0.7729-1.7257-1.7258s0.772-1.725 1.7257-1.725h1.6304c0.9537 0 1.7258 0.7721 1.7258 1.725 0 0.9537-0.7721 1.7258-1.7258 1.7258z" fill="#EDEDED"/>
<path d="m28.718 57.17h-1.6311c-0.9529 0-1.725-0.7729-1.725-1.7258 0-0.9536 0.7721-1.7257 1.725-1.7257h1.6311c0.953 0 1.7258 0.7721 1.7258 1.7257 0 0.9529-0.7728 1.7258-1.7258 1.7258z" fill="#EDEDED"/>
<path d="m47.053 34.291h-1.6311c-0.9529 0-1.7258-0.7729-1.7258-1.7258s0.7729-1.7258 1.7258-1.7258h1.6311c0.9529 0 1.7258 0.7729 1.7258 1.7258s-0.7729 1.7258-1.7258 1.7258z" fill="#EDEDED"/>
<path d="m77.76 64.762h-10.486c-0.9529 0-1.7257-0.7721-1.7257-1.7258 0-0.9529 0.7728-1.725 1.7257-1.725h10.486c0.9529 0 1.7257 0.7721 1.7257 1.725 0 0.9537-0.7728 1.7258-1.7257 1.7258z" fill="#FFC107"/>
<path d="m72.896 55.444c0-0.9529 0.7721-1.7257 1.725-1.7257h-7.3471c-0.9537 0-1.7257 0.7728-1.7257 1.7257s0.772 1.7258 1.7257 1.7258h7.3471c-0.9529 0-1.725-0.7729-1.725-1.7258z" fill="#EDEDED"/>
<path d="m72.896 47.852c0-0.9529 0.7721-1.7258 1.725-1.7258h-7.3471c-0.9537 0-1.7257 0.7729-1.7257 1.7258s0.772 1.7257 1.7257 1.7257h7.3471c-0.9529 0-1.725-0.7728-1.725-1.7257z" fill="#EDEDED"/>
<path d="m72.896 40.26c0-0.9537 0.7721-1.7257 1.725-1.7257h-7.3471c-0.9537 0-1.7257 0.772-1.7257 1.7257 0 0.9529 0.772 1.725 1.7257 1.725h7.3471c-0.9529 0-1.725-0.7721-1.725-1.725z" fill="#EDEDED"/>
<path d="m80.739 28.87c0-0.9529 0.7721-1.7258 1.7258-1.7258h-7.3479c-0.9529 0-1.7257 0.7729-1.7257 1.7258s0.7728 1.7257 1.7257 1.7257h7.3479c-0.9537 0-1.7258-0.7728-1.7258-1.7257z" fill="#EDEDED"/>
<path d="m80.739 21.278c0-0.9529 0.7721-1.725 1.7258-1.725h-7.3479c-0.9529 0-1.7257 0.7721-1.7257 1.725s0.7728 1.7258 1.7257 1.7258h7.3479c-0.9537 0-1.7258-0.7721-1.7258-1.7258z" fill="#EDEDED"/>
<path d="m72.896 63.036c0-0.9529 0.7721-1.725 1.725-1.725h-7.3471c-0.9537 0-1.7257 0.7721-1.7257 1.725 0 0.9537 0.772 1.7258 1.7257 1.7258h7.3471c-0.9529 0-1.725-0.7721-1.725-1.7258z" fill="#EDEDED"/>
<path d="m22.069 58.128c0-5.8723 4.406-10.713 10.091-11.405-0.2441-0.2784-0.3936-0.6424-0.3936-1.0421v-17.822c0-0.927-0.7927-1.6533-1.7166-1.5793-10.922 0.8819-19.489 10.099-19.334 21.284 0.1389 9.9716 7.3128 18.33 16.753 20.308-3.2425-2.0317-5.4001-5.6351-5.4001-9.7435z" fill="#f00"/>
</svg>
