<?xml version="1.0" encoding="UTF-8"?>
<svg viewBox="0 0 100 100" xmlns="http://www.w3.org/2000/svg">
<path d="m97.687 51.098c0 11.189-1.631 18.506-8.0953 26.746-0.8161 1.0403-1.5722 5.0419-2.4696 6.0138-1.6951 1.8361-3.5304 3.5459-5.4896 5.1132h-21.56c-7.0732 0-13.422 4.2441-15.991 10.69-11.365-1.311-21.564-6.3501-29.281-13.833v-40.074c0-6.679-3.8365-12.792-9.9261-15.815 1.0067-2.0595 2.1561-4.0383 3.4361-5.9243 0.40531-0.5974 3.2994-1.1855 3.7307-1.7637 6.322-8.48 12.897-12.829 23.433-15.931 0.6561-0.19321 1.3182-2.4202 1.9855-2.5874 4.0384-1.0126 8.2767-1.5465 12.649-1.5375 19.812 0.04112 36.918 11.352 44.974 27.726 0.2357 0.4788-1.2882 2.3251-1.0682 2.8127 2.7227 6.0336 3.6735 11.344 3.6735 18.363z" fill="#fff"/>
<path d="m37.551 3.7236v17.235c0 1.6535-1.3706 2.994-3.0612 2.994h-26.085c6.7455-9.8677 17.064-17.201 29.146-20.229z" fill="#484848"/>
<path d="m32.449 11.477c0 0.827-0.6851 1.497-1.5307 1.497h-12.236c1.357-1.0677 2.7721-2.0675 4.24-2.994h7.9955c0.8456 0 1.5307 0.6701 1.5307 1.497zm-6.6327 3.493h-9.5143c-0.9406 0.8397-1.8483 1.7142-2.721 2.6212 0.2696 0.2319 0.6235 0.3728 1.0108 0.3728h11.224c0.8455 0 1.5306-0.67 1.5306-1.497 0-0.8269-0.6851-1.497-1.5306-1.497z" fill="#EDEDED"/>
<path d="m49.194 99.994c-1.7267-0.0268-3.4325-0.139-5.1125-0.3328v-34.791c0-1.6535 1.3707-2.994 3.0613-2.994h5.4592c-1.6906 0-3.0613 1.3405-3.0613 2.994v34.789c0 0.1863-0.1563 0.3375-0.3467 0.3346z"/>
<path d="m81.633 64.87v24.101c-8.6178 6.8933-19.631 11.029-31.633 11.029-0.341 0-0.681-0.0034-1.0204-0.01v-35.12c0-1.6535 1.3706-2.994 3.0613-2.994h26.53c1.6907 0 3.0613 1.3405 3.0613 2.994z" fill="#484848"/>
<path d="m73.265 89.321c0 0.8269-0.6851 1.497-1.5306 1.497h-16.326c-0.8453 0-1.5306-0.6701-1.5306-1.497 0-0.827 0.6853-1.497 1.5306-1.497h16.326c0.8455 0 1.5306 0.67 1.5306 1.497zm-11.735 3.493h-6.1224c-0.8453 0-1.5306 0.67-1.5306 1.497 0 0.8269 0.6853 1.497 1.5306 1.497h6.1224c0.8455 0 1.5306-0.6701 1.5306-1.497 0-0.827-0.6851-1.497-1.5306-1.497zm-6.1224-11.976h16.326c0.8455 0 1.5306-0.67 1.5306-1.497 0-0.8269-0.6851-1.497-1.5306-1.497h-16.326c-0.8453 0-1.5306 0.6701-1.5306 1.497 0 0.827 0.6853 1.497 1.5306 1.497zm0 4.9901h11.224c0.8455 0 1.5306-0.6701 1.5306-1.4971 0-0.8269-0.6851-1.497-1.5306-1.497h-11.224c-0.8453 0-1.5306 0.6701-1.5306 1.497 0 0.827 0.6853 1.4971 1.5306 1.4971zm-8.6735-19.586c0-0.6202 0.5139-1.1227 1.148-1.1227h3.8265c0.6341 0 1.148 0.5025 1.148 1.1227s-0.5139 1.1228-1.148 1.1228h-3.8265c-0.6341 0-1.148-0.5026-1.148-1.1228zm4.9745 2.807h-3.8265c-0.6341 0-1.148 0.5026-1.148 1.1227 0 0.6202 0.5139 1.1228 1.148 1.1228h3.8265c0.6341 0 1.148-0.5026 1.148-1.1228 0-0.6201-0.5139-1.1227-1.148-1.1227z" fill="#FF3E30"/>
<path d="m90 29.94h5.0908c3.1463 6.4026 4.9092 13.579 4.9092 21.158 0 12.602-4.8735 24.09-12.878 32.76-0.1187-0.3193-0.1836-0.664-0.1836-1.0237v-49.9c0-1.6535 1.3706-2.994 3.0612-2.994z"/>
<path d="m94.898 29.94h0.1929c3.1463 6.4026 4.9091 13.579 4.9091 21.158 0 9.8902-3.002 19.095-8.1632 26.789v-44.953c0-1.6535 1.3706-2.994 3.0612-2.994z" fill="#484848"/>
<path d="m89.592 34.868c0-0.6202 0.5139-1.1228 1.148-1.1228h3.8265c0.634 0 1.1479 0.5026 1.1479 1.1228 0 0.6201-0.5139 1.1227-1.1479 1.1227h-3.8265c-0.6341 0-1.148-0.5026-1.148-1.1227zm4.9745 2.8069h-3.8265c-0.6341 0-1.148 0.5026-1.148 1.1228s0.5139 1.1228 1.148 1.1228h3.8265c0.634 0 1.1479-0.5026 1.1479-1.1228s-0.5139-1.1228-1.1479-1.1228z" fill="#0F9D58"/>
<path d="m37.551 32.934v49.9c0 1.6535-1.3706 2.994-3.0612 2.994h-19.69c-9.1396-8.8613-14.8-21.149-14.8-34.731 0-7.5788 1.7629-14.755 4.9092-21.158h29.581c1.6906 0 3.0612 1.3405 3.0612 2.994z"/>
<path d="m37.551 32.934v49.9c0 1.6535-1.3706 2.994-3.0612 2.994h-19.69c-4.0455-3.9222-7.4094-8.5158-9.9022-13.596v-39.298c0-1.6535 1.3706-2.994 3.0612-2.994h26.531c1.6906 0 3.0612 1.3405 3.0612 2.994z" fill="#484848"/>
<path d="m34.49 65.868v13.972c0 1.1024-0.9137 1.996-2.0408 1.996h-21.339c-4.0694-4.9187-7.1828-10.625-9.0644-16.849 0.33265-0.6607 1.028-1.1154 1.8318-1.1154h28.571c1.1271 0 2.0408 0.8936 2.0408 1.996zm-2.0408-23.952h-28.571c-1.1271 0-2.0408 0.8936-2.0408 1.996v13.972c0 1.1024 0.91367 1.996 2.0408 1.996h28.571c1.1271 0 2.0408-0.8936 2.0408-1.996v-13.972c0-1.1024-0.9137-1.996-2.0408-1.996z" fill="#FFC107"/>
<path d="m7.9591 38.798c0 0.6202-0.51387 1.1227-1.148 1.1227h-3.8265c-0.63408 0-1.148-0.5025-1.148-1.1227s0.51388-1.1228 1.148-1.1228h3.8265c0.63408 0 1.148 0.5026 1.148 1.1228zm-1.148-2.807c0.63408 0 1.148-0.5026 1.148-1.1228 0-0.6201-0.51387-1.1227-1.148-1.1227h-3.5718c-0.27224 0.7014-0.52857 1.4106-0.76836 2.1269 0.15448 0.0759 0.32897 0.1186 0.51367 0.1186h3.8265zm17.474 12.612c0 0.8269-0.6851 1.497-1.5306 1.497h-16.326c-0.8453 0-1.5306-0.6701-1.5306-1.497 0-0.827 0.68531-1.497 1.5306-1.497h16.326c0.8455 0 1.5306 0.67 1.5306 1.497zm-6.6326 3.493h-11.224c-0.8453 0-1.5306 0.6701-1.5306 1.497s0.68531 1.497 1.5306 1.497h11.224c0.8455 0 1.5306-0.6701 1.5306-1.497s-0.6851-1.497-1.5306-1.497zm2.7041 22.056c-0.6955 0-1.3749 0.0461-2.0315 0.1341-1.1263 0.1509-2.2226-0.4339-2.7302-1.4287-1.1885-2.3302-2.9571-3.8076-4.932-3.8076-2.1192 0-4.0006 1.701-5.1829 4.3309 1.5798 3.0134 3.4702 5.8455 5.6296 8.4559h19.424c0.0516-0.278 0.0784-0.5611 0.0784-0.8483 0-3.7756-4.5915-6.8363-10.255-6.8363zm10.357-7.9715c-0.8453 0-1.5306 0.6703-1.5306 1.497 0 0.8268 0.6853 1.497 1.5306 1.497s1.5306-0.6702 1.5306-1.497c0-0.8269-0.6853-1.497-1.5306-1.497zm0-22.068c-0.8453 0-1.5306 0.6702-1.5306 1.497 0 0.8267 0.6853 1.497 1.5306 1.497s1.5306-0.6703 1.5306-1.497c0-0.8268-0.6853-1.497-1.5306-1.497z" fill="#EDEDED"/>
<path d="m78.571 55.888h-31.428c-1.6906 0-3.0613-1.3405-3.0613-2.994v-49.9c0-1.6535 1.3707-2.994 3.0613-2.994h31.428c1.6906 0 3.0612 1.3405 3.0612 2.994v49.9c0 1.6535-1.3706 2.994-3.0612 2.994z"/>
<path d="m78.572 55.888h-26.53c-1.6907 0-3.0613-1.3405-3.0613-2.994v-49.9c0-1.6535 1.3706-2.994 3.0613-2.994h26.53c1.6907 0 3.0613 1.3405 3.0613 2.994v49.9c0 1.6535-1.3706 2.994-3.0613 2.994z" fill="#484848"/>
<path d="m52.857 33.486c0-0.8525 0.7131-1.5499 1.5847-1.5499h19.28c0.8717 0 1.5847 0.6974 1.5847 1.5499s-0.713 1.5499-1.5847 1.5499h-19.28c-0.8716-2e-4 -1.5847-0.6976-1.5847-1.5499zm20.864 4.1329h-19.28c-0.8716 0-1.5847 0.6974-1.5847 1.5499s0.7131 1.5499 1.5847 1.5499h19.28c0.8717 0 1.5847-0.6974 1.5847-1.5499s-0.713-1.5499-1.5847-1.5499z" fill="#EDEDED"/>
<path d="m69.364 49.783h-10.564c-1.0894 0-1.9808-0.8719-1.9808-1.9374 0-1.0654 0.8914-1.9373 1.9808-1.9373h10.564c1.0894 0 1.9808 0.8719 1.9808 1.9373 0 1.0655-0.8912 1.9374-1.9808 1.9374zm-16.506-44.855c0-0.62016-0.5139-1.1228-1.148-1.1228h-3.8265c-0.6341 0-1.148 0.5026-1.148 1.1228s0.5139 1.1228 1.148 1.1228h3.8265c0.6341 0 1.148-0.50279 1.148-1.1228zm-1.148 5.0523h-3.8265c-0.6341 0-1.148-0.50259-1.148-1.1228s0.5139-1.1228 1.148-1.1228h3.8265c0.6341 0 1.148 0.5026 1.148 1.1228s-0.5139 1.1228-1.148 1.1228zm2.6786 7.0447c0-5.2363 4.34-9.481 9.6938-9.481 5.3539 0 9.6939 4.2448 9.6939 9.481 0 3.0996-1.5208 5.8517-3.8726 7.5816-0.2088 0.1535-11.434 0.1535-11.643 0-2.3516-1.7299-3.8724-4.482-3.8724-7.5816z" fill="#4285F4"/>
<path d="m69.903 22.995v1.6111c-1.6211 1.1927-3.637 1.8995-5.8215 1.8995-2.1847 0-4.2004-0.7068-5.8214-1.8995v-1.6111c0-2.0964 1.7376-3.7958 3.881-3.7958h3.881c2.1433 0 3.8809 1.6994 3.8809 3.7958z" fill="#C8E2FD"/>
<path d="m60.686 13.98c0-1.8344 1.5205-3.3214 3.396-3.3214s3.3959 1.487 3.3959 3.3214c0 1.8343-1.5204 3.3213-3.3959 3.3213s-3.396-1.487-3.396-3.3213zm0 9.0149c0 1.12 0.6639 2.1368 1.7 2.6134 0.9023 0.4152 1.8804 0.698 2.9086 0.8236 1.7159-0.2094 3.2924-0.8575 4.6085-1.8258v-1.6112c0-2.0964-1.7375-3.7958-3.881-3.7958h-1.4553c-2.1432 0-3.8808 1.6994-3.8808 3.7958z" fill="#E9F3FE"/>
<path d="m67.477 13.98c0 1.4163-0.9065 2.6257-2.1831 3.1032-1.2765-0.4775-2.183-1.6869-2.183-3.1032 0-1.4164 0.9065-2.6258 2.183-3.1032 1.2766 0.4774 2.1831 1.6868 2.1831 3.1032z" fill="#FFF5F5"/>
</svg>
