<?xml version="1.0" encoding="UTF-8"?>
<svg viewBox="0 0 96 100" xmlns="http://www.w3.org/2000/svg">
<path d="m2.6512 67.885h90.401c1.7158-4.9287 2.6511-10.223 2.6511-15.736 0-26.428-21.424-47.852-47.852-47.852-26.428 0-47.852 21.424-47.852 47.852 0 5.5135 0.93555 10.808 2.6512 15.736z" fill="#fff"/>
<path d="m2.6512 15.478v52.406c1.6314 4.6863 3.9711 9.041 6.8904 12.936l7.8463 8.2262c8.2752 6.841 18.888 10.953 30.464 10.953 12.173 0 23.282-4.5471 31.726-12.034l6.7143-7.3224c2.8582-3.85 5.1529-8.1434 6.7597-12.759v-52.406h-90.401z" fill="#fff"/>
<path d="m2.6512 67.885c1.6314 4.6863 3.9711 9.041 6.8904 12.936l7.8463 8.2262c5.1522 4.2594 11.211 7.4601 17.844 9.2699v-26.017c-6.831-1.525-5.2734-8.3652-5.2734-8.3652-0.8084-0.8084 0-1.6295 0-1.6295s1.3455-2.8772 1.3455-4.9086 2.1559-2.4754 2.1559-2.4754c-2.8414-5.5898 2.5642-8.0654 2.5642-8.0654-4.1181-1.8065-2.5642-5.4801-2.5642-5.4801l-2.2244-5.8211c-3.8614 0-3.4161-3.4-3.4161-3.4-8.7095-1.2406-6.5455-9.7873-6.5455-9.7873-4.1873-2.3691-1.714-6.4977-1.714-6.4977-0.2512-0.1197-0.4715-0.2513-0.6698-0.3906h-16.239v52.406z" fill="#fff"/>
<path d="m24.986 10.053c0 3.2123-2.6041 5.8164-5.8164 5.8164h73.883v-5.8164h-68.066z" fill="#EDEDED"/>
<path d="m2.6514 10.053v5.8164h16.909c3.2124 0 5.8165-2.6041 5.8165-5.8164h-22.726z" fill="#fff"/>
<path d="m17.972 10.4c-0.1641-0.1131-0.3035-0.2295-0.4248-0.3477h-14.897v5.8164h16.909c-3.5086-1.6727-1.5879-5.4687-1.5879-5.4687z" fill="#4285F4"/>
<path d="m89.724 0h-83.744c-1.8383 0-3.3287 1.4902-3.3287 3.3287v7.0717h90.401v-7.0717c0-1.8385-1.4902-3.3287-3.3285-3.3287z" fill="#484848"/>
<path d="m17.519 0h-11.539c-1.8383 0-3.3287 1.4902-3.3287 3.3287v7.0717h15.321c-1.9553-1.3473-0.6717-3.149-0.6717-3.149s1.5113-2.5912 0-4.1024c-1.5114-1.5113 0.2181-3.149 0.2181-3.149z" fill="#484848"/>
<path d="m11.276 7.2513c1.1328 0 2.0512-0.91834 2.0512-2.0512s-0.9184-2.0512-2.0512-2.0512-2.0512 0.91834-2.0512 2.0512 0.91836 2.0512 2.0512 2.0512z" fill="#f00"/>
<path d="m17.301 7.2513c1.1329 0 2.0512-0.91834 2.0512-2.0512s-0.9183-2.0512-2.0512-2.0512c-1.1328 0-2.0511 0.91834-2.0511 2.0512s0.9183 2.0512 2.0511 2.0512z" fill="#FFC107"/>
<path d="m23.326 7.2513c1.1328 0 2.0512-0.91834 2.0512-2.0512s-0.9184-2.0512-2.0512-2.0512-2.0512 0.91834-2.0512 2.0512 0.9184 2.0512 2.0512 2.0512z" fill="#0F9D58"/>
<path d="m74.61 6.665h-43.272c-0.809 0-1.4648-0.65566-1.4648-1.4648s0.6558-1.4648 1.4648-1.4648h43.272c0.809 0 1.4649 0.65567 1.4649 1.4648s-0.6559 1.4648-1.4649 1.4648z" fill="#EDEDED"/>
<path d="m85.166 6.665h-3.7342c-0.809 0-1.4648-0.65566-1.4648-1.4648s0.6558-1.4648 1.4648-1.4648h3.7342c0.809 0 1.4649 0.65567 1.4649 1.4648s-0.6559 1.4648-1.4649 1.4648z" fill="#EDEDED"/>
<path d="m56.134 22.367h-45.348c-0.7676 0-1.3897 0.6222-1.3897 1.3896v31.555h48.128v-31.555c0-0.7675-0.6223-1.3896-1.3899-1.3896z" fill="#f00"/>
<path d="m10.786 22.367c-0.7676 0-1.3897 0.6222-1.3897 1.3896v31.555h23.12c0.4906-0.2967 0.9437-0.3906 0.9437-0.3906-2.8414-5.5899 2.5643-8.0654 2.5643-8.0654-4.1182-1.8065-2.5643-5.4801-2.5643-5.4801l-2.2244-5.8211c-3.8613 0-3.416-3.4-3.416-3.4-8.7096-1.2406-6.5455-9.7873-6.5455-9.7873h-10.488z" fill="#f00"/>
<path d="m9.3962 54.921v7.6238c0 0.7676 0.62226 1.3897 1.3897 1.3897h45.348c0.7676 0 1.3897-0.6223 1.3897-1.3897v-7.6238h-48.128z" fill="#484848"/>
<path d="m9.3962 62.544c0 0.7675 0.62226 1.3898 1.3897 1.3898h19.173c-0.8084-0.8084 0-1.6295 0-1.6295s1.3455-2.8771 1.3455-4.9086c0-2.0314 2.1559-2.4754 2.1559-2.4754h-24.064v7.6237z" fill="#484848"/>
<path d="m77.713 36.048c0-0.7625 0.6181-1.3805 1.3804-1.3805h7.2143v-10.912c0-0.7675-0.6223-1.3896-1.3897-1.3896h-19.506c-0.7676 0-1.3896 0.6222-1.3896 1.3896v14.756c0 0.7676 0.6222 1.3896 1.3896 1.3896h12.301v-3.8531z" fill="#FFC107"/>
<path d="m77.713 60.081c0-0.7625 0.6181-1.3805 1.3804-1.3805h7.2143v-10.912c0-0.7676-0.6223-1.3896-1.3897-1.3896h-19.506c-0.7676 0-1.3896 0.6222-1.3896 1.3896v14.756c0 0.7676 0.6222 1.3896 1.3896 1.3896h12.301v-3.8531z" fill="#4285F4"/>
<path d="m86.308 80.628v-8.8059c0-0.7676-0.6223-1.3898-1.3897-1.3898h-19.506c-0.7676 0-1.3896 0.6222-1.3896 1.3898v14.756c0 0.7676 0.6222 1.3897 1.3896 1.3897h12.301v-3.8532c0-0.7625 0.6181-1.3804 1.3804-1.3804h5.5594c0.5707-0.686 1.1225-1.3881 1.6549-2.1057z" fill="#0F9D58"/>
<path d="m73.418 38.512v-14.756c0-0.7675 0.6223-1.3896 1.3896-1.3896h-9.3962c-0.7676 0-1.3897 0.6222-1.3897 1.3896v14.756c0 0.7676 0.6223 1.3897 1.3897 1.3897h9.3962c-0.7673 0-1.3896-0.6223-1.3896-1.3897z" fill="#EDEDED"/>
<path d="m73.418 86.577v-14.756c0-0.7676 0.6223-1.3898 1.3896-1.3898h-9.3962c-0.7676 0-1.3897 0.6222-1.3897 1.3898v14.756c0 0.7676 0.6223 1.3897 1.3897 1.3897h9.3962c-0.7673 1e-4 -1.3896-0.6221-1.3896-1.3897z" fill="#EDEDED"/>
<path d="m45.779 75.229h-10.547c-0.809 0-1.4649-0.6556-1.4649-1.4648s0.6559-1.4649 1.4649-1.4649h10.547c0.8089 0 1.4648 0.6557 1.4648 1.4649s-0.6559 1.4648-1.4648 1.4648z" fill="#484848"/>
<path d="m52.81 81.006h-17.578c-0.809 0-1.4649-0.6557-1.4649-1.4649s0.6559-1.4648 1.4649-1.4648h17.578c0.809 0 1.4648 0.6556 1.4648 1.4648s-0.6556 1.4649-1.4648 1.4649z" fill="#484848"/>
<path d="m52.81 86.783h-17.578c-0.809 0-1.4649-0.6557-1.4649-1.4649 0-0.8089 0.6559-1.4648 1.4649-1.4648h17.578c0.809 0 1.4648 0.6559 1.4648 1.4648 0 0.809-0.6556 1.4649-1.4648 1.4649z" fill="#484848"/>
<path d="m17.716 60.892h-2.076c-0.8089 0-1.4648-0.6556-1.4648-1.4648s0.6559-1.4649 1.4648-1.4649h2.076c0.809 0 1.4649 0.6557 1.4649 1.4649s-0.6559 1.4648-1.4649 1.4648z" fill="#EDEDED"/>
<path d="m51.053 60.892h-21.094c-0.8089 0-1.4648-0.6556-1.4648-1.4648s0.6559-1.4649 1.4648-1.4649h21.094c0.809 0 1.4648 0.6557 1.4648 1.4649s-0.6556 1.4648-1.4648 1.4648z" fill="#EDEDED"/>
<path d="m29.959 60.892h-7.1779c-0.809 0-1.4649-0.6556-1.4649-1.4648s0.6559-1.4649 1.4649-1.4649h7.1779c0.809 0 1.4648 0.6557 1.4648 1.4649s-0.6558 1.4648-1.4648 1.4648z" fill="#f00"/>
<path d="m29.959 62.305c-0.809 0-1.4648-0.6557-1.4648-1.4648v-2.8647c0-0.8092 0.6558-1.4648 1.4648-1.4648s1.4648 0.6556 1.4648 1.4648v2.8647c0 0.8091-0.6558 1.4648-1.4648 1.4648z" fill="#EA4335"/>
<path d="m78.703 34.277c-0.7625 0-1.3804 0.618-1.3804 1.3805v4.244h7.5957c0.7675 0 1.3896-0.6223 1.3896-1.3897v-4.2348h-7.6049z" fill="#FFE98D"/>
<path d="m78.703 58.31c-0.7625 0-1.3804 0.6182-1.3804 1.3805v4.2439h7.5957c0.7675 0 1.3896-0.6222 1.3896-1.3896v-4.2346h-7.6049v-2e-4z" fill="#9BD8F9"/>
<path d="m78.703 82.342c-0.7625 0-1.3804 0.618-1.3804 1.3805v4.2438h2.2558c1.9465-1.7254 3.7516-3.6063 5.3951-5.6245h-6.2705v2e-4z" fill="#0BD372"/>
<path d="m41.806 40.657c1.1114-4.6169-1.7303-9.2606-6.3471-10.372-4.6169-1.1114-9.2606 1.7302-10.372 6.3471s1.7302 9.2606 6.3471 10.372c4.6169 1.1114 9.2606-1.7302 10.372-6.3471z" fill="#fff"/>
<path d="m33.46 41.375-2.2244-5.821c-3.8613 0-3.416-3.4-3.416-3.4-1.8127 1.5767-2.9601 3.8984-2.9601 6.4896 0 4.7498 3.8505 8.6004 8.6003 8.6004 0.8932 0 1.7543-0.1363 2.5643-0.3889-4.1178-1.8064-2.5641-5.4801-2.5641-5.4801z" fill="#fff"/>
<path d="m36.86 37.818-4.4334-2.4851c-0.6311-0.3537-1.4096 0.1023-1.4096 0.8257v4.9704c0 0.7234 0.7785 1.1795 1.4096 0.8257l4.4334-2.4851c0.6451-0.3617 0.6451-1.2901 0-1.6516z" fill="#f00"/>
<path d="m36.102 37.387-2.2045-1.2357c-0.3139-0.176-0.701 0.0509-0.701 0.4105v2.4715c0 0.3598 0.3871 0.5865 0.701 0.4105l2.2045-1.2357c0.3207-0.1797 0.3207-0.6414 0-0.8211z" fill="#f00"/>
<path d="m19.482 69.114c-5.5703 0-10.086 4.5157-10.086 10.086 0 0.5463 0.0459 1.0816 0.12969 1.6045 1.235 1.649 2.5752 3.2142 4.0088 4.6884l2e-4 -4e-4 5.6555 3.1577c0.0972 0.0031 0.1943 0.0068 0.2922 0.0068 4.0084 0 7.5166-2.7326 7.5166-2.7326 1.5976-1.7848 2.5693-4.1408 2.5693-6.7242-2e-4 -5.5705-4.516-10.086-10.086-10.086z" fill="#f00"/>
<path d="m29.346 81.302c-3.7723 1.8619-6.4161-0.8668-6.4161-0.8668s-1.338-8.9427-2.9341-9.3468c-1.1344-0.2872-1.1262-1.3633-1.0266-1.9622-5.3318 0.2672-9.5729 4.6748-9.5729 10.073 0 0.5463 0.0459 1.0816 0.12969 1.6045 1.235 1.649 2.5752 3.2142 4.0088 4.6885l2e-4 -4e-4 5.6555 3.1576c0.0972 0.0031 0.1943 0.0068 0.2922 0.0068 4.0084 0 7.5166-2.7326 7.5166-2.7326 1.1511-1.2863 1.975-2.8705 2.3467-4.6217z" fill="#f00"/>
<path d="m16.786 85.538c0.7694 0.5974 1.719 0.9221 2.6967 0.9221s1.9273-0.3245 2.6967-0.9221c0.357-0.2774 0.7291-0.619 1.0883-1.0207-0.2073-0.0668-0.4182-0.1281-0.6342-0.1822-0.1309-0.0329-0.2457-0.1116-0.3199-0.2161-0.3422-0.4826-0.437-1.2287-0.4555-1.7697-0.2401 0.2795-0.4918 0.5133-0.7324 0.7002-0.9651 0.7494-2.3225 0.7484-3.2864 0-0.2406-0.1869-0.4923-0.4207-0.7324-0.7002-0.0191 0.5531-0.1176 1.3205-0.4785 1.8016-0.0615 0.082-0.1564 0.1492-0.2703 0.1773-0.2246 0.0557-0.4445 0.1192-0.6609 0.1891 0.3595 0.4017 0.7316 0.7433 1.0888 1.0207z" fill="#F9BA8F"/>
<path d="m19.35 83.606c-0.5361-0.0262-1.0656-0.2104-1.5111-0.5565-0.2407-0.1869-0.4924-0.4207-0.7325-0.7002-0.0191 0.5531-0.1175 1.3205-0.4785 1.8016-0.0615 0.082-0.1564 0.1492-0.2703 0.1773-0.2246 0.0557-0.4445 0.1192-0.6609 0.1889 0.3594 0.4017 0.7312 0.7433 1.0885 1.0209 0.4886 0.3795 1.0503 0.6478 1.6455 0.7937 0.622-0.9244 0.8457-1.9683 0.9193-2.7257z" fill="#F9BA8F"/>
<path d="m25.284 85.409c-0.6908-0.3897-1.4043-0.7063-2.1734-0.94-0.3533 0.4013-0.7213 0.7392-1.0737 1.0128-0.7289 0.5661-1.6283 0.8735-2.5546 0.8735-0.9264 0-1.8258-0.3074-2.5547-0.8735-0.3524-0.2736-0.7203-0.6115-1.0735-1.0128-0.7668 0.2335-1.4847 0.5515-2.1734 0.94-0.0529 0.0297-0.1006 0.0572-0.1459 0.0832 1.2258 1.2613 2.518 2.4574 3.8756 3.5781 0.6689 0.1399 1.3615 0.2154 2.0721 0.2154 2.9869 0 5.6701-1.2988 7.5169-3.3619-0.2679-0.0832-0.5617-0.1408-0.8841-0.1672-0.3069-0.0252-0.47-0.1439-0.8313-0.3476z" fill="#484848"/>
<path d="m18.496 86.236c-0.5672-0.1378-1.1025-0.3925-1.5679-0.7539-0.3524-0.2736-0.7203-0.6115-1.0735-1.0128-0.7668 0.2335-1.4847 0.5515-2.1734 0.94-0.0529 0.0297-0.1006 0.0572-0.1459 0.0832 0.8605 0.8857 1.756 1.7371 2.6818 2.5549 1.0883-0.4016 1.8076-1.0719 2.2789-1.8114z" fill="#484848"/>
<path d="m18.688 71.109c-2.3859 0.325-2.6127 1.6778-2.6137 2.1741-1e-4 0.1041-0.0578 0.2006-0.1515 0.2461-1.241 0.6037-0.5719 3.5134-0.5719 3.5134 0.1246 0.0084 0.3115 0.1153 0.4088 0.1624 0.0238-0.1483 0.0627-0.2944 0.1176-0.4354 0.0418-0.1076 0.0941-0.2162 0.1595-0.3187 0.1135-0.1782 0.1653-0.3881 0.1499-0.5981-0.0446-0.607-0.0797-1.7467 0.7216-2.1072 0.6787-0.3055 1.5116-0.1285 2.0424 0.048 0.3449 0.1147 0.7184 0.1147 1.0633 0 0.5311-0.1765 1.3637-0.3535 2.0426-0.048 0.799 0.3595 0.7662 1.4933 0.722 2.1019-0.0152 0.2116 0.035 0.4239 0.1495 0.6034 0.0675 0.1058 0.1211 0.2181 0.1636 0.3291 0.053 0.1378 0.0905 0.2802 0.1137 0.425 0.1227-0.0594 0.3543-0.1807 0.5043-0.1594 0.0184-0.6363 0.0771-1.3221 0.0771-1.3221 0.7071-3.4629-2.5298-4.9645-5.0988-4.6145z" fill="#484848"/>
<path d="m18.688 71.109c-2.3859 0.325-2.6127 1.6777-2.6137 2.174-1e-4 0.1041-0.0578 0.2006-0.1515 0.2461-1.241 0.6037-0.5719 3.5135-0.5719 3.5135 0.1246 0.0084 0.3115 0.1152 0.4088 0.1623 0.0238-0.1483 0.0627-0.2944 0.1176-0.4354 0.0418-0.1076 0.0941-0.2162 0.1595-0.3187 0.1135-0.1782 0.1653-0.3881 0.1499-0.5981-0.0446-0.607-0.0797-1.7467 0.7216-2.1072 0.6787-0.3055 1.5116-0.1285 2.0424 0.048 0.1453 0.0483 0.2957 0.075 0.4469 0.0826-0.0233-0.0396-0.0479-0.0791-0.0756-0.1181-1.0236-1.4387 0.3992-2.4869 0.6738-2.6701-0.4402-0.0436-0.883-0.0368-1.3078 0.0211z" fill="#484848"/>
<path d="m23.921 77.129c-0.1857-0.1703-0.5558-0.084-0.716 0.0203 0.0352 0.2184 0.0371 0.4418 0.0069 0.6623l-0.1889 1.3756c0 0.1109-0.0035 0.2197-0.01 0.3266 0.4606 0.1388 0.6893-0.2747 0.728-0.5582 0.0166-0.1221 0.0437-0.2426 0.0812-0.36 0.1225-0.3826 0.5645-1.0398 0.0988-1.4666z" fill="#F9BA8F"/>
<path d="m15.044 77.129c0.1857-0.1703 0.556-0.084 0.716 0.0203-0.0352 0.2184-0.0371 0.4418-0.0068 0.6623l0.1888 1.3756c0 0.1109 0.0035 0.2197 0.01 0.3266-0.4606 0.1388-0.6893-0.2747-0.7279-0.5582-0.0167-0.1221-0.0438-0.2426-0.0813-0.36-0.1225-0.3826-0.5645-1.0398-0.0988-1.4666z" fill="#F9BA8F"/>
<path d="m23.148 76.724c-0.0426-0.1109-0.0961-0.2232-0.1637-0.3291-0.1144-0.1795-0.1646-0.3916-0.1494-0.6033 0.0441-0.6086 0.0205-1.799-0.7785-2.1584-0.6787-0.3055-1.5113-0.1285-2.0424 0.0481-0.3449 0.1146-0.7186 0.1146-1.0635 0-0.531-0.1766-1.3636-0.3534-2.0424-0.0481-0.8011 0.3606-0.8226 1.5567-0.7781 2.1637 0.0154 0.2099-0.0363 0.4201-0.1498 0.598-0.0654 0.1026-0.1178 0.2114-0.1596 0.3188-0.1357 0.3488-0.1753 0.7269-0.1244 1.0972l0.1889 1.3758c0 1.978 1.0559 3.3225 1.9541 4.0198 0.4687 0.364 1.0473 0.5617 1.6432 0.5617s1.1744-0.1979 1.6431-0.5617c0.8981-0.6975 1.9539-2.0418 1.9539-4.0198l0.1889-1.3756c0.0504-0.3666 0.0123-0.7412-0.1203-1.0871z" fill="#F9BA8F"/>
<path d="m20.462 83.206c-0.898-0.6975-1.9539-2.0418-1.9539-4.0197l-0.1888-1.3758c-0.0508-0.3703-0.0114-0.7487 0.1244-1.0973 0.0418-0.1074 0.0941-0.216 0.1595-0.3187 0.1135-0.1782 0.1653-0.3881 0.1499-0.5981-0.0403-0.5488-0.0264-1.5793 0.5687-2.0381-0.1256-0.0119-0.2504-0.0373-0.3713-0.0775-0.531-0.1766-1.3637-0.3533-2.0424-0.048-0.8011 0.3605-0.8226 1.5566-0.7781 2.1636 0.0154 0.21-0.0363 0.4201-0.1498 0.5981-0.0654 0.1025-0.1178 0.2113-0.1596 0.3187-0.1357 0.3488-0.1754 0.727-0.1244 1.0973l0.1889 1.3758c0 1.9779 1.0558 3.3224 1.9541 4.0197 0.4687 0.3641 1.0472 0.5617 1.6431 0.5617 0.4622 0 0.9135-0.1193 1.3116-0.3426-0.1155-0.0644-0.2266-0.1373-0.3319-0.2191z" fill="#F9BA8F"/>
<path d="m26.334 75.359c1.834 0 3.3207-1.4868 3.3207-3.3207 0-1.834-1.4867-3.3207-3.3207-3.3207-1.8339 0-3.3207 1.4867-3.3207 3.3207 0 1.8339 1.4868 3.3207 3.3207 3.3207z" fill="#4285F4"/>
<path d="m26.999 73.047c0.7575 0 1.3717-0.6141 1.3717-1.3717 0-0.7575-0.6142-1.3717-1.3717-1.3717-0.7576 0-1.3717 0.6142-1.3717 1.3717 0 0.7576 0.6141 1.3717 1.3717 1.3717z" fill="#9BD8F9"/>
<path d="m73.418 62.545v-14.756c0-0.7675 0.6223-1.3898 1.3896-1.3898h-9.3962c-0.7676 0-1.3897 0.6223-1.3897 1.3898v14.756c0 0.7676 0.6223 1.3898 1.3897 1.3898h9.3962c-0.7673 0-1.3896-0.6222-1.3896-1.3898z" fill="#EDEDED"/>
</svg>
