<?xml version="1.0" encoding="UTF-8"?>
<svg viewBox="0 0 100 96" xmlns="http://www.w3.org/2000/svg">
<path d="m47.851 0c-11.463 0-21.983 4.0326-30.223 10.754l-1.5162 72.903c6.6617 5.9096 14.983 9.9885 24.178 11.448l19.253-0.8442c20.776-5.217 36.161-24.016 36.161-46.41 0-26.428-21.424-47.851-47.851-47.851z" fill="#fff"/>
<path d="m47.851 0c-11.463 0-21.983 4.0326-30.223 10.754l-1.5162 72.903c6.6617 5.9096 14.983 9.9885 24.178 11.448l19.253-0.8442c20.776-5.217 36.161-24.016 36.161-46.41 0-26.428-21.424-47.851-47.851-47.851z" fill="#FFC107"/>
<path d="m100 69.469v-52.508c0-3.4281-2.7789-6.207-6.207-6.207h-76.165c-10.757 8.7746-17.628 22.133-17.628 37.097 0 7.7795 1.8582 15.124 5.1522 21.618l94.848 2e-4z" fill="#EDEDED"/>
<path d="m6.0616 24.074h87.877v45.396h-87.877v-45.396z" fill="#484848"/>
<path d="M6 25H19.0879V70.3959H6V25Z" fill="#484848"/>
<path d="m93.793 15.213h-80.93c-0.9594 1.028-1.8752 2.0969-2.742 3.2063h82.214v51.05c0 0.8853 0.7178 1.6031 1.6032 1.6031 0.8853 0 1.6031-0.7178 1.6031-1.6031v-52.508c0-0.9643-0.7842-1.7487-1.7484-1.7487z" fill="#484848"/>
<path d="m19.149 17.844c0-0.9269 0.1774-1.814 0.4967-2.6312h-6.7828c-0.9594 1.0279-1.8752 2.0969-2.7418 3.2062h9.0281v-0.575h-2e-4z" fill="#484848"/>
<path d="m4.4586 27.663v40.376c0.48027 1.0305 0.9959 2.0409 1.5457 3.0299 0.01914 6e-4 0.03809 3e-3 0.05742 3e-3 0.88535 0 1.6031-0.7178 1.6031-1.6032v-47.601c-1.1971 1.8476-2.269 3.7836-3.2062 5.7949z" fill="#484848"/>
<path d="m13.43 22.86c-0.795 0-1.4301-0.6482-1.4301-1.4302 0-0.9064 0.8343-1.5778 1.7088-1.4016 0.6853 0.1391 1.1512 0.7326 1.1512 1.4016 1e-4 0.7627-0.6144 1.4302-1.4299 1.4302z" fill="#484848"/>
<path d="m18.43 22.86c-0.795 0-1.4301-0.6482-1.4301-1.4302 0-0.9064 0.8343-1.5778 1.7088-1.4016 0.6853 0.1391 1.1512 0.7326 1.1512 1.4016 1e-4 0.7627-0.6144 1.4302-1.4299 1.4302z" fill="#484848"/>
<path d="m23.43 22.86c-0.795 0-1.4301-0.6482-1.4301-1.4302 0-0.9064 0.8343-1.5778 1.7089-1.4016 0.6852 0.1391 1.1511 0.7326 1.1511 1.4016 1e-4 0.7627-0.6144 1.4302-1.4299 1.4302z" fill="#484848"/>
<path d="m40.576 83.208v9.5834c0 0.7898-0.1002 1.5658-0.2869 2.3141 2.4635 0.3912 4.9887 0.5968 7.5621 0.5968 4.0332 0 7.9488-0.5013 11.691-1.441-0.0752-0.4826-0.1183-0.973-0.1183-1.4699v-9.5834h-18.848z" fill="#484848"/>
<path d="m46.568 93.323c0-3.2849 2.6631-5.948 5.9481-5.948h6.908v-4.1666h-18.848v9.5834c0 0.7898-0.1002 1.5658-0.2869 2.3141 2.0524 0.3259 4.1481 0.5209 6.2783 0.5777v-2.3606z" fill="#484848"/>
<path d="m16.112 83.657h77.681c3.4281 0 6.207-2.7789 6.207-6.2071v-8.43h-95.071c2.7582 5.5818 6.5724 10.547 11.183 14.637z" fill="#EDEDED"/>
<path d="m19.149 77.412v-8.3914h-14.22c2.7582 5.5818 6.5724 10.547 11.183 14.637h6.5861c-2.1213-1.2772-3.5484-3.6028-3.5484-6.2457z" fill="#EDEDED"/>
<path d="m52.826 77.518c0.6412-1.5466-0.093-3.3202-1.6397-3.9613-1.5466-0.6411-3.3202 0.093-3.9613 1.6397s0.093 3.3202 1.6397 3.9613 3.3202-0.093 3.9613-1.6397z" fill="#484848"/>
<path d="m18.222 51.851h8.555c0.6751 0 1.2225 0.224 1.2225 0.5001v2.9998c0 0.2762-0.5474 0.5001-1.2225 0.5001h-8.555c-0.6751 0-1.2225-0.2239-1.2225-0.5001v-2.9998c0-0.2761 0.5474-0.5001 1.2225-0.5001z" fill="#EDEDED"/>
<path d="m33.75 51.851h1.4998c0.4142 0 0.7501 0.224 0.7501 0.5001v2.9998c0 0.2762-0.3359 0.5001-0.7501 0.5001h-1.4998c-0.4142 0-0.7501-0.2239-0.7501-0.5001v-2.9998c0-0.2761 0.3359-0.5001 0.7501-0.5001z" fill="#EDEDED"/>
<path d="m48.222 51.851h8.5556c0.6751 0 1.2225 0.224 1.2225 0.5001v2.9998c0 0.2762-0.5474 0.5001-1.2225 0.5001h-8.5556c-0.675 0-1.2219-0.2239-1.2219-0.5001v-2.9998c0-0.2761 0.5469-0.5001 1.2219-0.5001z" fill="#EDEDED"/>
<path d="m64.158 51.851h19.685c0.6395 0 1.1576 0.224 1.1576 0.5001v2.9998c0 0.2762-0.5181 0.5001-1.1576 0.5001h-19.685c-0.6395 0-1.1576-0.2239-1.1576-0.5001v-2.9998c0-0.2761 0.5181-0.5001 1.1576-0.5001z" fill="#EDEDED"/>
<path d="m83.852 63.851h-28.704c-0.6342 0-1.1484-0.2796-1.1484-0.6248v-3.7503c0-0.3452 0.5142-0.6249 1.1484-0.6249h28.704c0.6342 0 1.1479 0.2797 1.1479 0.6249v3.7503c0 0.3452-0.5137 0.6248-1.1479 0.6248z" fill="#EDEDED"/>
<path d="m46.852 63.851h-28.704c-0.6342 0-1.1484-0.2796-1.1484-0.6248v-3.7503c0-0.3452 0.5142-0.6249 1.1484-0.6249h28.704c0.6337 0 1.1479 0.2797 1.1479 0.6249v3.7503c0 0.3452-0.5142 0.6248-1.1479 0.6248z" fill="#EDEDED"/>
<path d="m18.5 48.851c-0.8285 0-1.5003-0.1493-1.5003-0.3334v-0.3332c0-0.1841 0.6718-0.3334 1.5003-0.3334 0.8279 0 1.4997 0.1493 1.4997 0.3334v0.3332c0 0.1841-0.6718 0.3334-1.4997 0.3334z" fill="#EDEDED"/>
<path d="m23 48.851c-0.5523 0-1.0002-0.1493-1.0002-0.3334v-0.3332c0-0.1841 0.4479-0.3334 1.0002-0.3334 0.5524 0 0.9998 0.1493 0.9998 0.3334v0.3332c0 0.1841-0.4474 0.3334-0.9998 0.3334z" fill="#EDEDED"/>
<path d="m27.5 48.851c-0.8283 0-1.5-0.1493-1.5-0.3334v-0.3332c0-0.1841 0.6717-0.3334 1.5-0.3334s1.5 0.1493 1.5 0.3334v0.3332c0 0.1841-0.6717 0.3334-1.5 0.3334z" fill="#EDEDED"/>
<path d="m33 48.851c-0.5524 0-0.9998-0.1493-0.9998-0.3334v-0.3332c0-0.1841 0.4474-0.3334 0.9998-0.3334 0.5523 0 1.0002 0.1493 1.0002 0.3334v0.3332c0 0.1841-0.4479 0.3334-1.0002 0.3334z" fill="#EDEDED"/>
<path d="m36 48.851c-0.5523 0-1.0002-0.1493-1.0002-0.3334v-0.3332c0-0.1841 0.4479-0.3334 1.0002-0.3334 0.5519 0 0.9998 0.1493 0.9998 0.3334v0.3332c0 0.1841-0.4479 0.3334-0.9998 0.3334z" fill="#EDEDED"/>
<path d="m39 65.851c-0.5523 0-1.0002-0.2745-1.0002-0.613v-17.774c0-0.3385 0.4479-0.6128 1.0002-0.6128 0.5524 0 0.9998 0.2743 0.9998 0.6128v17.774c0 0.3385-0.4474 0.613-0.9998 0.613z" fill="#EDEDED"/>
<path d="m46.173 48.851c-0.6476 0-1.1727-0.1493-1.1727-0.3334v-0.3332c0-0.1841 0.5251-0.3334 1.1727-0.3334 0.6475 0 1.1726 0.1493 1.1726 0.3334v0.3332c0 0.1841-0.5251 0.3334-1.1726 0.3334z" fill="#EDEDED"/>
<path d="m50.862 48.851c-0.6475 0-1.1721-0.1493-1.1721-0.3334v-0.3332c0-0.1841 0.5246-0.3334 1.1721-0.3334 0.6476 0 1.1727 0.1493 1.1727 0.3334v0.3332c0 0.1841-0.5251 0.3334-1.1727 0.3334z" fill="#EDEDED"/>
<path d="m55.552 48.851c-0.647 0-1.1721-0.1493-1.1721-0.3334v-0.3332c0-0.1841 0.5251-0.3334 1.1721-0.3334 0.6475 0 1.1727 0.1493 1.1727 0.3334v0.3332c0 0.1841-0.5252 0.3334-1.1727 0.3334z" fill="#EDEDED"/>
<path d="m60.242 48.851c-0.6475 0-1.1726-0.1493-1.1726-0.3334v-0.3332c0-0.1841 0.5251-0.3334 1.1726-0.3334s1.1721 0.1493 1.1721 0.3334v0.3332c0 0.1841-0.5246 0.3334-1.1721 0.3334z" fill="#EDEDED"/>
<path d="m64.931 48.851c-0.6475 0-1.1726-0.1493-1.1726-0.3334v-0.3332c0-0.1841 0.5251-0.3334 1.1726-0.3334 0.6476 0 1.1722 0.1493 1.1722 0.3334v0.3332c0 0.1841-0.5246 0.3334-1.1722 0.3334z" fill="#EDEDED"/>
<path d="m69.621 48.851c-0.6476 0-1.1722-0.1493-1.1722-0.3334v-0.3332c0-0.1841 0.5246-0.3334 1.1722-0.3334 0.6475 0 1.1726 0.1493 1.1726 0.3334v0.3332c0 0.1841-0.5251 0.3334-1.1726 0.3334z" fill="#EDEDED"/>
<path d="m74.31 48.851c-0.6476 0-1.1721-0.1493-1.1721-0.3334v-0.3332c0-0.1841 0.5245-0.3334 1.1721-0.3334 0.6475 0 1.1726 0.1493 1.1726 0.3334v0.3332c0 0.1841-0.5251 0.3334-1.1726 0.3334z" fill="#EDEDED"/>
<path d="m79 48.851c-0.6475 0-1.1726-0.1493-1.1726-0.3334v-0.3332c0-0.1841 0.5251-0.3334 1.1726-0.3334 0.6476 0 1.1722 0.1493 1.1722 0.3334v0.3332c0 0.1841-0.5246 0.3334-1.1722 0.3334z" fill="#EDEDED"/>
<path d="m83.69 48.851c-0.6475 0-1.1726-0.1493-1.1726-0.3334v-0.3332c0-0.1841 0.5251-0.3334 1.1726-0.3334 0.6476 0 1.1721 0.1493 1.1721 0.3334v0.3332c0 0.1841-0.5245 0.3334-1.1721 0.3334z" fill="#EDEDED"/>
<path d="m39 47.851c-0.3535 0-0.6926-0.0658-0.9429-0.1831l-2.6667-1.25c-0.2503-0.1173-0.3907-0.2762-0.3907-0.4419v-1.8751c0-0.69 1.1938-1.2499 2.6667-1.2499h2.6666c1.4729 0 2.6667 0.5599 2.6667 1.2499v1.8751c0 0.1657-0.1404 0.3246-0.3901 0.4419l-2.6673 1.25c-0.2497 0.1173-0.5888 0.1831-0.9423 0.1831z" fill="#EDEDED"/>
<path d="m57.732 38.236c1.1115-4.6169-1.7302-9.2606-6.347-10.372-4.6169-1.1115-9.2606 1.7302-10.372 6.3471-1.1115 4.6168 1.7302 9.2606 6.3471 10.372 4.6168 1.1115 9.2606-1.7302 10.372-6.347z" fill="#EDEDED"/>
<path d="m52.843 35.459-4.4334-2.4851c-0.6311-0.3537-1.4096 0.1023-1.4096 0.8258v4.9703c0 0.7234 0.7785 1.1795 1.4096 0.8257l4.4334-2.4851c0.6451-0.3617 0.6451-1.29 0-1.6516z" fill="#484848"/>
</svg>
