<?xml version="1.0" encoding="UTF-8"?>
<svg viewBox="0 0 100 100" xmlns="http://www.w3.org/2000/svg">
<path d="m34.087 96.892c-18.482-7.0114-31.692-25.119-31.89-46.407-0.25609-27.572 21.932-50.485 48.9-50.485 23.935 0 43.854 17.582 48.077 40.804 0.3581 1.9694-1.1212 3.7884-3.0805 3.7884h-9.7465c-26.854 0-48.623 22.258-48.623 49.715 0 1.9216-1.8751 3.2541-3.6372 2.5855z" fill="#FFC107"/>
<path d="m9.98 81.06h-5.988c-2.2048 0-3.992-1.8273-3.992-4.0816v-50.204c0-2.2543 1.7872-4.0817 3.992-4.0817h5.988c2.2048 0 3.9921 1.8274 3.9921 4.0817v50.204c0 2.2541-1.7873 4.0816-3.9921 4.0816z" fill="#484848"/>
<path d="m73.852 81.06h-64.072c-2.2048 0-3.992-1.8273-3.992-4.0816v-50.204c0-2.2543 1.7872-4.0817 3.992-4.0817h64.072c2.2048 0 3.992 1.8274 3.992 4.0817v50.204c0 2.2541-1.7872 4.0816-3.992 4.0816z" fill="#484848"/>
<path d="m77.844 26.774h-77.844v-4.0816c0-2.2543 1.7872-4.0816 3.992-4.0816h69.86c2.2048 0 3.992 1.8273 3.992 4.0816v4.0816z" fill="#484848"/>
<path d="m77.844 26.774h-72.056v-4.0816c0-2.2543 1.7872-4.0816 3.992-4.0816h64.072c2.2048 0 3.992 1.8273 3.992 4.0816v4.0816z" fill="#484848"/>
<path d="m77.844 22.693h-77.844v-8.1633c0-2.2543 1.7872-4.0816 3.992-4.0816h69.86c2.2048 0 3.992 1.8273 3.992 4.0816v8.1633z" fill="#EDEDED"/>
<path d="m77.844 22.693h-72.056v-8.1633c0-2.2543 1.7872-4.0816 3.992-4.0816h64.072c2.2048 0 3.992 1.8273 3.992 4.0816v8.1633z" fill="#EDEDED"/>
<path d="m19.96 41.735c0 1.1271-0.8937 2.0408-1.9961 2.0408h-7.984c-1.1024 0-1.996-0.9137-1.996-2.0408 0-1.1272 0.89361-2.0409 1.996-2.0409h7.984c1.1024 0 1.9961 0.9137 1.9961 2.0409z" fill="#EDEDED"/>
<path d="m7.984 49.898c0-1.1271 0.89361-2.0408 1.996-2.0408h3.992c1.1024 0 1.996 0.9137 1.996 2.0408s-0.8936 2.0408-1.996 2.0408h-3.992c-1.1024 0-1.996-0.9137-1.996-2.0408zm5.988 6.1224h-3.992c-1.1024 0-1.996 0.9137-1.996 2.0409 0 1.1271 0.89361 2.0408 1.996 2.0408h3.992c1.1024 0 1.996-0.9137 1.996-2.0408 0-1.1272-0.8936-2.0409-1.996-2.0409zm0 8.1633h-3.992c-1.1024 0-1.996 0.9137-1.996 2.0408 0 1.1272 0.89361 2.0408 1.996 2.0408h3.992c1.1024 0 1.996-0.9136 1.996-2.0408 0-1.1271-0.8936-2.0408-1.996-2.0408z" fill="#EDEDED"/>
<path d="m7.984 33.571c0-1.1271 0.89361-2.0408 1.996-2.0408h17.964c1.1024 0 1.996 0.9137 1.996 2.0408 0 1.1272-0.8936 2.0409-1.996 2.0409h-17.964c-1.1024 0-1.996-0.9137-1.996-2.0409zm1.996 38.776c-1.1024 0-1.996 0.9137-1.996 2.0408 0 1.1272 0.89361 2.0408 1.996 2.0408 1.1024 0 1.996-0.9136 1.996-2.0408 0-1.1271-0.8936-2.0408-1.996-2.0408zm6.986 0c-1.1023 0-1.996 0.9137-1.996 2.0408 0 1.1272 0.8937 2.0408 1.996 2.0408 1.1024 0 1.9961-0.9136 1.9961-2.0408 0-1.1271-0.8937-2.0408-1.9961-2.0408zm6.9861 0c-1.1024 0-1.996 0.9137-1.996 2.0408 0 1.1272 0.8936 2.0408 1.996 2.0408s1.996-0.9136 1.996-2.0408c0-1.1271-0.8936-2.0408-1.996-2.0408zm-3.992-22.449c0 1.1271 0.8936 2.0408 1.996 2.0408h17.964c1.1023 0 1.996-0.9137 1.996-2.0408 0-1.1272-0.8937-2.0408-1.996-2.0408h-17.964c-1.1024 0-1.996 0.9136-1.996 2.0408zm1.996 6.1224c-1.1024 0-1.996 0.9137-1.996 2.0409 0 1.1271 0.8936 2.0408 1.996 2.0408h7.984c1.1024 0 1.996-0.9137 1.996-2.0408 0-1.1272-0.8936-2.0409-1.996-2.0409h-7.984zm17.964 8.1633h-17.964c-1.1024 0-1.996 0.9137-1.996 2.0408 0 1.1272 0.8936 2.0409 1.996 2.0409h17.964c1.1023 0 1.996-0.9137 1.996-2.0409 0-1.1271-0.8937-2.0408-1.996-2.0408z" fill="#EDEDED"/>
<path d="m40.259 98.962c-2.1433-0.4992-4.2332-1.1423-6.2591-1.9188v-39.894c0-2.2543 1.7872-4.0816 3.992-4.0816h4.99v43.671c0 1.4622-1.3285 2.5486-2.7229 2.2239z" fill="#484848"/>
<path d="m99.921 52.857c-1.4483 26.285-22.754 47.143-48.824 47.143-3.9169 0-7.7265-0.4709-11.377-1.3603v-41.701c0-2.2543 1.7872-4.0816 3.992-4.0816h56.209z" fill="#484848"/>
<path d="m51.896 56.939h-17.964v-4.0817c0-2.2543 1.7873-4.0816 3.992-4.0816h9.9801c2.2048 0 3.992 1.8273 3.992 4.0816v4.0817z" fill="#484848"/>
<path d="m99.533 56.939h-59.812v-4.0817c0-2.2543 1.7872-4.0816 3.992-4.0816h56.273c0.0096 0.4069 0.0143 0.8151 0.0143 1.2245 0 2.3545-0.1592 4.671-0.467 6.9388z" fill="#484848"/>
<path d="m55.888 52.857h-21.956v-8.1633c0-2.2543 1.7873-4.0816 3.992-4.0816h13.972c2.2048 0 3.992 1.8273 3.992 4.0816v8.1633z" fill="#EDEDED"/>
<path d="m99.921 52.857h-60.201v-8.1633c0-2.2543 1.7872-4.0816 3.992-4.0816h55.427c0.5648 3.0406 0.8606 6.179 0.8606 9.3878 0 0.9589-0.0263 1.9116-0.0786 2.8571z" fill="#EDEDED"/>
<path d="m68.862 91.632h-23.952c-1.6535 0-2.9941-1.3706-2.9941-3.0612v-14.286c0-1.6906 1.3406-3.0612 2.9941-3.0612h23.952c1.6535 0 2.994 1.3706 2.994 3.0612v14.286c0 1.6906-1.3405 3.0612-2.994 3.0612z" fill="#EDEDED"/>
<path d="m95.388 71.224c-3.8134 8.3043-9.7951 15.361-17.199 20.408h-12.321v-20.408h29.52z" fill="#EDEDED"/>
<path d="m67.864 66.122h-15.968c-1.1024 0-1.996-0.9137-1.996-2.0408 0-1.1272 0.8936-2.0408 1.996-2.0408h15.968c1.1024 0 1.996 0.9136 1.996 2.0408 0 1.1271-0.8936 2.0408-1.996 2.0408z" fill="#EDEDED"/>
<path d="m81.836 77.347c0 1.1271-0.8936 2.0408-1.996 2.0408h-27.944c-1.1024 0-1.996-0.9137-1.996-2.0408 0-1.1272 0.8936-2.0408 1.996-2.0408h27.944c1.1024 0 1.996 0.9136 1.996 2.0408zm-13.972 6.1224h-15.968c-1.1024 0-1.996 0.9137-1.996 2.0409 0 1.1271 0.8936 2.0408 1.996 2.0408h15.968c1.1024 0 1.996-0.9137 1.996-2.0408 0-1.1272-0.8936-2.0409-1.996-2.0409z" fill="#484848"/>
<path d="m72.156 96.633h-5.9547c-1.6534 0-2.994-1.3706-2.994-3.0612s1.3406-3.0612 2.994-3.0612h5.9547c1.6535 0 2.9941 1.3706 2.9941 3.0612s-1.3406 3.0612-2.9941 3.0612z" fill="#EDEDED"/>
<path d="m44.91 67.143c-1.6535 0-2.9941-1.3707-2.9941-3.0613s1.3406-3.0612 2.9941-3.0612c1.6534 0 2.994 1.3706 2.994 3.0612s-1.3406 3.0613-2.994 3.0613zm31.271 29.49h-3.992c-1.6535 0-2.994-1.3706-2.994-3.0612s1.3405-3.0612 2.994-3.0612h3.992c1.6535 0 2.994 1.3706 2.994 3.0612s-1.3405 3.0612-2.994 3.0612z" fill="#EDEDED"/>
<ellipse cx="42" cy="45.91" rx="2" ry="2.0449" fill="#484848"/>
<ellipse cx="51" cy="45.91" rx="2" ry="2.0449" fill="#484848"/>
<ellipse cx="60" cy="45.91" rx="2" ry="2.0449" fill="#484848"/>
<ellipse cx="4.9999" cy="18.304" rx="2" ry="2.0449" fill="#484848"/>
<ellipse cx="14" cy="18.304" rx="2" ry="2.0449" fill="#484848"/>
<ellipse cx="23" cy="18.304" rx="2" ry="2.0449" fill="#484848"/>
</svg>
