<svg width="35" height="40" viewBox="0 0 35 40" fill="none" xmlns="http://www.w3.org/2000/svg">
<path d="M5.5 5H30.5V32H5.5V5Z" fill="#EDEDED"/>
<path d="M34.7768 0.282609C34.6148 0.102609 34.3873 0 34.1479 0H0.852161C0.612703 0 0.385176 0.102609 0.223265 0.282609C0.0613537 0.462609 -0.0178973 0.704348 0.00340676 0.946956L3.00302 35.2313C3.03455 35.5896 3.27912 35.8913 3.61828 35.9904L17.2614 39.967C17.3372 39.9887 17.4165 40 17.4949 40C17.5733 40 17.6525 39.9887 17.7284 39.967L31.3834 35.9904C31.7226 35.8913 31.9672 35.5896 31.9987 35.2313L34.9966 0.946956C35.0179 0.704348 34.9378 0.462609 34.7768 0.282609ZM6.4219 23.4817L12.387 25.1704V7.82609H15.7957V30.4348L6.4219 27.7817V23.4817ZM28.6241 17.3913L27.726 28.0435L19.2043 30.4348V26.4339L24.9564 24.8209L25.1695 21.56L19.2043 22.6087V7.82609H29.4303L29.1363 11.3043H22.613V18.2609L28.6241 17.3913Z" fill="#484848"/>
</svg>
