<svg width="40" height="40" viewBox="0 0 40 40" fill="none" xmlns="http://www.w3.org/2000/svg">
<path d="M19.9928 37.9686C19.515 37.9686 19.0301 37.8403 18.6094 37.5978L14.2095 34.995C13.5535 34.6241 13.8743 34.4959 14.0883 34.4245C14.9653 34.1178 15.1436 34.0537 16.0778 33.5188C16.1777 33.4619 16.306 33.4831 16.4058 33.5474L19.786 35.5512C19.9072 35.6224 20.0782 35.6224 20.1924 35.5512L33.3636 27.9493C33.485 27.878 33.5632 27.7354 33.5632 27.5928V12.3892C33.5632 12.2395 33.485 12.104 33.3566 12.0256L20.1925 4.43086C20.0713 4.35953 19.9073 4.35953 19.786 4.43086L6.62909 12.0327C6.50065 12.104 6.4223 12.2466 6.4223 12.3963V27.5928C6.4223 27.7354 6.50065 27.878 6.62909 27.9423L10.2375 30.0245C12.1986 31.0014 13.3966 29.8534 13.3966 28.6911V13.687C13.3966 13.4731 13.5677 13.3091 13.7818 13.3091H15.4504C15.6572 13.3091 15.8354 13.4731 15.8354 13.687V28.6982C15.8354 31.3081 14.4092 32.8057 11.9348 32.8057C11.1717 32.8057 10.5727 32.8057 8.90402 31.9785L5.45253 29.9889C4.59675 29.4968 4.06909 28.5769 4.06909 27.5858V12.3892C4.06909 11.4052 4.59675 10.4781 5.45253 9.98609L18.6094 2.38422C19.4437 1.91359 20.5491 1.91359 21.3763 2.38422L34.5477 9.99313C35.4034 10.4852 35.9311 11.4051 35.9311 12.3963V27.5928C35.9311 28.5769 35.4034 29.4968 34.5477 29.996L21.3763 37.5978C20.9555 37.8403 20.4776 37.9686 19.9928 37.9686ZM30.6255 22.9862C30.6255 20.1408 28.7 19.3849 24.6568 18.8502C20.5633 18.3081 20.1498 18.03 20.1498 17.0745C20.1498 16.283 20.4993 15.2275 23.53 15.2275C26.2328 15.2275 27.2311 15.8123 27.6446 17.6379C27.6804 17.809 27.8374 17.9373 28.0154 17.9373H29.7271C29.8339 17.9373 29.9338 17.8946 30.0052 17.8161C30.0766 17.7377 30.1121 17.6307 30.1048 17.5237C29.8411 14.379 27.7516 12.917 23.53 12.917C19.7719 12.917 17.5328 14.5002 17.5328 17.1601C17.5328 20.041 19.7647 20.8398 23.3659 21.1962C27.6803 21.617 28.0154 22.2517 28.0154 23.1003C28.0154 24.5695 26.8318 25.1968 24.0578 25.1968C20.5707 25.1968 19.8075 24.3197 19.5508 22.587C19.5223 22.4016 19.3653 22.2661 19.1729 22.2661H17.4685C17.2546 22.2661 17.0907 22.4373 17.0907 22.6439C17.0907 24.8619 18.2958 27.5075 24.065 27.5075C28.2294 27.5003 30.6255 25.8527 30.6255 22.9862Z" fill="#484848"/>
</svg>

