<?xml version="1.0" encoding="UTF-8"?>
<svg fill="none" viewBox="0 0 100 100" xmlns="http://www.w3.org/2000/svg">
<path d="m83.633 85.2c-3.2269-7.0661-10.164-11.582-17.791-11.582h-60.053c-3.6475-6.9465-5.7363-14.876-5.7874-23.3-0.16866-27.746 21.549-50.197 48.685-50.317 15.264-0.067347 28.913 7.0163 37.925 18.163v50.401c0 3.1 1.3795 6.0317 3.7486 7.9664-1.927 3.1414-4.1863 6.0483-6.7272 8.6691z" fill="#fff"/>
<path d="m39.72 18.164h46.891c6.9916 8.6475 11.193 19.741 11.193 31.837 0 9.7463-2.7274 18.841-7.4443 26.531h-50.64c-2.2048 0-3.992-1.8274-3.992-4.0816v-50.204c0-2.2543 1.7872-4.0816 3.992-4.0816z" fill="#000"/>
<path d="m45.509 18.164h41.103c6.9916 8.6475 11.193 19.741 11.193 31.837 0 9.7463-2.7274 18.841-7.4443 26.531h-44.851c-2.2048 0-3.9921-1.8274-3.9921-4.0816v-50.204c0-2.2543 1.7873-4.0816 3.9921-4.0816z" fill="#484848"/>
<path d="m11.673 82.422c-2.2529-2.7017-4.2293-5.6517-5.8848-8.8043v-14.638c0-2.2543 1.7872-4.0817 3.992-4.0817h4.8695v26.407c0 1.6072-1.9569 2.3398-2.9767 1.1168z" fill="#000"/>
<path d="m11.577 82.306v-23.326c0-2.2543 1.7872-4.0817 3.992-4.0817h64.072c2.2048 0 3.992 1.8274 3.992 4.0817v26.22c-8.8613 9.1396-21.149 14.8-34.73 14.8-14.962 0-28.355-6.8706-37.325-17.694z" fill="#484848"/>
<path d="m11.876 58.98h-6.0878v-4.0817c0-2.2543 1.7872-4.0816 3.992-4.0816h2.0958c2.2048 0 3.992 1.8273 3.992 4.0816s-1.7872 4.0817-3.992 4.0817z" fill="#FFC107"/>
<path d="m44.711 58.98h-33.134v-4.0817c0-2.2543 1.7872-4.0816 3.992-4.0816h25.15c2.2048 0 3.992 1.8273 3.992 4.0816v4.0817z" fill="#FFC107"/>
<path d="m11.851 54.898h-6.0628v-8.1633c0-2.2543 1.7872-4.0817 3.992-4.0817h5.7884c2.2048 0 3.992 1.8274 3.992 4.0817v0.2806c0 4.3535-3.4517 7.8827-7.7096 7.8827z" fill="#EDEDED"/>
<path d="m40.186 54.898h-28.609v-8.1633c0-2.2543 1.7872-4.0817 3.992-4.0817h20.625c2.2048 0 3.992 1.8274 3.992 4.0817v8.1633z" fill="#EDEDED"/>
<g clip-path="url(#a)">
<path d="m12.999 51.023c1.1038 0 1.9986-0.9041 1.9986-2.0194 0-1.1152-0.8948-2.0193-1.9986-2.0193s-1.9986 0.9041-1.9986 2.0193c0 1.1153 0.8948 2.0194 1.9986 2.0194z" fill="#FF3E30"/>
<path d="m21.992 51.023c1.1038 0 1.9986-0.9041 1.9986-2.0194 0-1.1152-0.8948-2.0193-1.9986-2.0193-1.1037 0-1.9985 0.9041-1.9985 2.0193 0 1.1153 0.8948 2.0194 1.9985 2.0194z" fill="#F4B400"/>
<path d="m30.986 51.023c1.1038 0 1.9986-0.9041 1.9986-2.0194 0-1.1152-0.8948-2.0193-1.9986-2.0193s-1.9986 0.9041-1.9986 2.0193c0 1.1153 0.8948 2.0194 1.9986 2.0194z" fill="#0F9D58"/>
</g>
<path d="m75.649 66.122v25.743c-4.8026 3.2141-10.192 5.5876-15.968 6.9161v-32.659c0-0.5635 0.4469-1.0204 0.998-1.0204h13.972c0.5513 0 0.998 0.4569 0.998 1.0204zm-20.958-1.0204h-35.928c-0.5511 0-0.998 0.4569-0.998 1.0204v18.367c0 0.5635 0.4469 1.0204 0.998 1.0204h35.928c0.5511 0 0.998-0.4569 0.998-1.0204v-18.367c0-0.5635-0.4468-1.0204-0.998-1.0204zm-21.956 24.49h-13.702c4.3722 3.4535 9.3321 6.1666 14.7 7.9558v-6.9353c0-0.5635-0.4467-1.0205-0.998-1.0205zm21.956 0h-15.968c-0.5511 0-0.998 0.457-0.998 1.0205v8.0757c3.5898 0.8581 7.3319 1.312 11.178 1.312 2.3028 0 4.5685-0.1629 6.7865-0.4775v-8.9102c0-0.5635-0.4468-1.0205-0.998-1.0205z" fill="#4285F4"/>
<path d="m83.633 76.531h-43.912c-2.2048 0-3.992-1.8274-3.992-4.0817v-29.796h43.912c2.2047 0 3.992 1.8274 3.992 4.0816v29.796z" fill="#000"/>
<path d="m83.633 46.735v29.796h-37.924c-2.2048 0-3.992-1.8274-3.992-4.0817v-29.796h37.924c2.2048 0 3.992 1.8274 3.992 4.0816z" fill="#484848"/>
<path d="m45.708 26.327c0-1.1271 0.8936-2.0408 1.996-2.0408h21.956c1.1024 0 1.996 0.9137 1.996 2.0408s-0.8936 2.0408-1.996 2.0408h-21.956c-1.1024 0-1.996-0.9137-1.996-2.0408zm37.924 6.1224h-35.928c-1.1024 0-1.996 0.9137-1.996 2.0409 0 1.1271 0.8936 2.0408 1.996 2.0408h35.928c1.1024 0 1.996-0.9137 1.996-2.0408 0-1.1272-0.8936-2.0409-1.996-2.0409z" fill="#EDEDED"/>
<path d="m65.669 71.007c0 1.1271-0.8936 2.0408-1.996 2.0408s-1.996-0.9137-1.996-2.0408c0-1.1272 0.8936-2.0408 1.996-2.0408s1.996 0.9136 1.996 2.0408zm-9.9801-2.0408c-1.1024 0-1.996 0.9136-1.996 2.0408 0 1.1271 0.8936 2.0408 1.996 2.0408s1.996-0.9137 1.996-2.0408c0-1.1272-0.8936-2.0408-1.996-2.0408zm-7.984 0c-1.1024 0-1.996 0.9136-1.996 2.0408 0 1.1271 0.8936 2.0408 1.996 2.0408s1.996-0.9137 1.996-2.0408c0-1.1272-0.8936-2.0408-1.996-2.0408zm27.944-26.313c0-1.1272-0.8936-2.0408-1.996-2.0408h-25.948c-1.1024 0-1.996 0.9136-1.996 2.0408 0 1.1271 0.8936 2.0408 1.996 2.0408h25.948c1.1024 0 1.996-0.9137 1.996-2.0408zm-9.98 8.1633c0-1.1272-0.8936-2.0409-1.996-2.0409h-15.968c-1.1024 0-1.996 0.9137-1.996 2.0409 0 1.1271 0.8936 2.0408 1.996 2.0408h15.968c1.1024 0 1.996-0.9137 1.996-2.0408zm23.952 0c0-1.1272-0.8936-2.0409-1.996-2.0409h-13.972c-1.1024 0-1.996 0.9137-1.996 2.0409 0 1.1271 0.8936 2.0408 1.996 2.0408h13.972c1.1024 0 1.996-0.9137 1.996-2.0408zm1.996-8.1633c0-1.1272-0.8936-2.0408-1.996-2.0408h-7.9841c-1.1024 0-1.996 0.9136-1.996 2.0408 0 1.1271 0.8936 2.0408 1.996 2.0408h7.9841c1.1024 0 1.996-0.9137 1.996-2.0408z" fill="#EDEDED"/>
<path d="m78.144 67.143h-4.0918c-2.2048 0-3.992-1.8273-3.992-4.0816s1.7872-4.0817 3.992-4.0817h4.0918c2.2048 0 3.992 1.8274 3.992 4.0817s-1.7872 4.0816-3.992 4.0816z" fill="#0F9D58"/>
<path d="m96.008 67.143h-17.964c-2.2048 0-3.992-1.8273-3.992-4.0816s1.7872-4.0817 3.992-4.0817h17.964c2.2048 0 3.992 1.8274 3.992 4.0817s-1.7872 4.0816-3.992 4.0816z" fill="#0F9D58"/>
<path d="m37.724 18.163c0 7.8898-6.2555 14.286-13.972 14.286-7.7165 0-13.972-6.3959-13.972-14.286s6.2555-14.286 13.972-14.286c7.7166 0 13.972 6.3959 13.972 14.286z" fill="#FF3E30"/>
<path d="m35.924 25.183c-2.3982 4.3377-6.9505 7.2659-12.172 7.2659-7.7165 0-13.972-6.3959-13.972-14.286 0-5.3384 2.8638-9.9929 7.1064-12.445-1.1461 2.0733-1.8004 4.4684-1.8004 7.0196 0 7.8898 6.2554 14.286 13.972 14.286 2.4954 2e-4 4.8379-0.6688 6.8657-1.8406z" fill="#FF3E30"/>
<path d="m29.156 19.606-7.2282 7.3904c-0.7794 0.7969-2.0433 0.7969-2.8227 0-0.7795-0.7969-0.7795-2.0892 0-2.8861l5.8168-5.9474-5.8168-5.9473c-0.7795-0.797-0.7795-2.0892 0-2.8861 0.7794-0.79694 2.0433-0.79694 2.8227 0l7.2282 7.3904c0.7794 0.7969 0.7794 2.0892 0 2.8861z" fill="#FFF5F5"/>
<defs>
<clipPath id="a">
<rect transform="translate(11 46.933)" width="22" height="4.0898" fill="#fff"/>
</clipPath>
</defs>
</svg>
