<svg width="98" height="100" viewBox="0 0 98 100" fill="none" xmlns="http://www.w3.org/2000/svg">
<path d="M95.5423 51.0979C95.5423 62.2869 93.9471 69.6039 87.6248 77.8444C86.8266 78.8847 86.087 82.8863 85.2094 83.8582C83.5515 85.6943 81.7565 87.4041 79.8403 88.9714H58.7535C51.8356 88.9714 45.6262 93.2155 43.1138 99.6612C31.998 98.3502 22.0236 93.3111 14.4753 85.8285V45.755C14.4753 39.076 10.723 32.9632 4.76709 29.9402C5.75172 27.8807 6.87587 25.9019 8.12777 24.0159C8.52418 23.4185 11.3547 22.8304 11.7765 22.2522C17.9597 13.7722 24.3902 9.42286 34.6952 6.32086C35.3369 6.12765 35.9845 3.9007 36.6371 3.73344C40.5868 2.72086 44.7322 2.18693 49.008 2.19591C68.3851 2.23703 85.1158 13.5478 92.9942 29.9221C93.2248 30.4009 91.7344 32.2472 91.9495 32.7348C94.6124 38.7684 95.5423 44.0789 95.5423 51.0979Z" fill="#FFC107"/>
<path d="M36.7265 3.72363V20.9582C36.7265 22.6117 35.386 23.9522 33.7325 23.9522H8.22015C14.8176 14.0845 24.9096 6.75158 36.7265 3.72363Z" fill="#484848"/>
<path d="M31.7365 11.4771C31.7365 12.3041 31.0665 12.9741 30.2395 12.9741H18.2727C19.5998 11.9064 20.9838 10.9066 22.4196 9.9801H30.2395C31.0665 9.9801 31.7365 10.6502 31.7365 11.4771ZM25.2495 14.9701H15.9441C15.0242 15.8098 14.1363 16.6843 13.2828 17.5913C13.5465 17.8232 13.8926 17.9641 14.2715 17.9641H25.2495C26.0765 17.9641 26.7465 17.2941 26.7465 16.4671C26.7465 15.6402 26.0765 14.9701 25.2495 14.9701Z" fill="#EDEDED"/>
<path d="M48.114 99.9936C46.4252 99.9668 44.7569 99.8546 43.1138 99.6608V64.8702C43.1138 63.2167 44.4543 61.8762 46.1078 61.8762H51.4471C49.7936 61.8762 48.4531 63.2167 48.4531 64.8702V99.659C48.4531 99.8453 48.3002 99.9965 48.114 99.9936Z" fill="#484848"/>
<path d="M79.8403 64.8702V88.9713C71.4118 95.8645 60.6399 100 48.9022 100C48.5686 100 48.2361 99.9966 47.9042 99.99V64.8702C47.9042 63.2167 49.2447 61.8762 50.8982 61.8762H76.8463C78.4998 61.8762 79.8403 63.2167 79.8403 64.8702Z" fill="#484848"/>
<path d="M71.6566 89.3214C71.6566 90.1483 70.9865 90.8184 70.1596 90.8184H54.1915C53.3648 90.8184 52.6945 90.1483 52.6945 89.3214C52.6945 88.4944 53.3648 87.8244 54.1915 87.8244H70.1596C70.9865 87.8244 71.6566 88.4944 71.6566 89.3214ZM60.1795 92.8144H54.1915C53.3648 92.8144 52.6945 93.4844 52.6945 94.3114C52.6945 95.1383 53.3648 95.8084 54.1915 95.8084H60.1795C61.0065 95.8084 61.6765 95.1383 61.6765 94.3114C61.6765 93.4844 61.0065 92.8144 60.1795 92.8144ZM54.1915 80.8383H70.1596C70.9865 80.8383 71.6566 80.1683 71.6566 79.3413C71.6566 78.5144 70.9865 77.8443 70.1596 77.8443H54.1915C53.3648 77.8443 52.6945 78.5144 52.6945 79.3413C52.6945 80.1683 53.3648 80.8383 54.1915 80.8383ZM54.1915 85.8284H65.1695C65.9965 85.8284 66.6665 85.1583 66.6665 84.3313C66.6665 83.5044 65.9965 82.8343 65.1695 82.8343H54.1915C53.3648 82.8343 52.6945 83.5044 52.6945 84.3313C52.6945 85.1583 53.3648 85.8284 54.1915 85.8284ZM45.7085 66.2425C45.7085 65.6223 46.2111 65.1198 46.8312 65.1198H50.5738C51.1939 65.1198 51.6965 65.6223 51.6965 66.2425C51.6965 66.8627 51.1939 67.3653 50.5738 67.3653H46.8312C46.2111 67.3653 45.7085 66.8627 45.7085 66.2425ZM50.5738 69.0495H46.8312C46.2111 69.0495 45.7085 69.5521 45.7085 70.1722C45.7085 70.7924 46.2111 71.295 46.8312 71.295H50.5738C51.1939 71.295 51.6965 70.7924 51.6965 70.1722C51.6965 69.5521 51.1939 69.0495 50.5738 69.0495Z" fill="#EDEDED"/>
<path d="M88.0239 29.9401H93.003C96.0802 36.3427 97.8044 43.5189 97.8044 51.0977C97.8044 63.6993 93.0379 75.1876 85.2095 83.858C85.0934 83.5387 85.0299 83.194 85.0299 82.8343V32.9341C85.0299 31.2806 86.3704 29.9401 88.0239 29.9401Z" fill="#484848"/>
<path d="M92.8145 29.9401H93.0031C96.0803 36.3427 97.8045 43.5189 97.8045 51.0977C97.8045 60.9879 94.8683 70.1923 89.8204 77.8869V32.9341C89.8204 31.2806 91.161 29.9401 92.8145 29.9401Z" fill="#484848"/>
<path d="M87.6248 34.8678C87.6248 34.2476 88.1273 33.745 88.7475 33.745H92.49C93.1102 33.745 93.6128 34.2476 93.6128 34.8678C93.6128 35.4879 93.1102 35.9905 92.49 35.9905H88.7475C88.1273 35.9905 87.6248 35.4879 87.6248 34.8678ZM92.49 37.6747H88.7475C88.1273 37.6747 87.6248 38.1773 87.6248 38.7975C87.6248 39.4177 88.1273 39.9202 88.7475 39.9202H92.49C93.1102 39.9202 93.6128 39.4177 93.6128 38.7975C93.6128 38.1773 93.1102 37.6747 92.49 37.6747Z" fill="#EDEDED"/>
<path d="M36.7265 32.9341V82.8343C36.7265 84.4878 35.386 85.8283 33.7325 85.8283H14.4753C5.53633 76.967 0 64.679 0 51.0977C0 43.5189 1.72415 36.3427 4.8014 29.9401H33.7325C35.386 29.9401 36.7265 31.2806 36.7265 32.9341Z" fill="#484848"/>
<path d="M36.7266 32.9341V82.8343C36.7266 84.4878 35.3861 85.8283 33.7326 85.8283H14.4753C10.5186 81.9061 7.22859 77.3125 4.79047 72.2325V32.9341C4.79047 31.2806 6.13099 29.9401 7.78448 29.9401H33.7326C35.3861 29.9401 36.7266 31.2806 36.7266 32.9341Z" fill="#484848"/>
<path d="M33.7325 65.8681V79.8401C33.7325 80.9425 32.8389 81.8361 31.7365 81.8361H10.8662C6.88621 76.9174 3.8411 71.211 2.00078 64.9875C2.32613 64.3268 3.00617 63.8721 3.79239 63.8721H31.7365C32.8389 63.8721 33.7325 64.7657 33.7325 65.8681ZM31.7365 41.916H3.79239C2.69 41.916 1.79639 42.8096 1.79639 43.912V57.8841C1.79639 58.9865 2.69 59.8801 3.79239 59.8801H31.7365C32.8389 59.8801 33.7325 58.9865 33.7325 57.8841V43.912C33.7325 42.8096 32.8389 41.916 31.7365 41.916Z" fill="#EDEDED"/>
<path d="M7.78441 38.7975C7.78441 39.4177 7.28182 39.9202 6.66166 39.9202H2.91914C2.29898 39.9202 1.79639 39.4177 1.79639 38.7975C1.79639 38.1773 2.29898 37.6747 2.91914 37.6747H6.66166C7.28182 37.6747 7.78441 38.1773 7.78441 38.7975ZM6.66166 35.9905C7.28182 35.9905 7.78441 35.4879 7.78441 34.8677C7.78441 34.2476 7.28182 33.745 6.66166 33.745H3.16824C2.90198 34.4464 2.65128 35.1556 2.41675 35.8719C2.56784 35.9478 2.7385 35.9905 2.91914 35.9905H6.66166ZM23.7525 48.6029C23.7525 49.4298 23.0824 50.0999 22.2555 50.0999H6.28741C5.46066 50.0999 4.7904 49.4298 4.7904 48.6029C4.7904 47.7759 5.46066 47.1059 6.28741 47.1059H22.2555C23.0824 47.1059 23.7525 47.7759 23.7525 48.6029ZM17.2654 52.0959H6.28741C5.46066 52.0959 4.7904 52.766 4.7904 53.5929C4.7904 54.4198 5.46066 55.0899 6.28741 55.0899H17.2654C18.0924 55.0899 18.7625 54.4198 18.7625 53.5929C18.7625 52.766 18.0924 52.0959 17.2654 52.0959ZM19.9102 74.1518C19.2299 74.1518 18.5654 74.1979 17.9233 74.2859C16.8217 74.4368 15.7495 73.852 15.2531 72.8572C14.0906 70.527 12.3609 69.0496 10.4293 69.0496C8.35667 69.0496 6.51655 70.7506 5.36026 73.3805C6.90537 76.3939 8.75427 79.226 10.8662 81.8364H29.8635C29.914 81.5584 29.9401 81.2753 29.9401 80.9881C29.9401 77.2125 25.4495 74.1518 19.9102 74.1518ZM30.0399 66.1803C29.2132 66.1803 28.5429 66.8506 28.5429 67.6773C28.5429 68.5041 29.2132 69.1743 30.0399 69.1743C30.8666 69.1743 31.5369 68.5041 31.5369 67.6773C31.5369 66.8504 30.8666 66.1803 30.0399 66.1803ZM30.0399 44.1119C29.2132 44.1119 28.5429 44.7821 28.5429 45.6089C28.5429 46.4356 29.2132 47.1059 30.0399 47.1059C30.8666 47.1059 31.5369 46.4356 31.5369 45.6089C31.5369 44.7821 30.8666 44.1119 30.0399 44.1119Z" fill="#484848"/>
<path d="M76.8463 55.8882H46.1078C44.4543 55.8882 43.1138 54.5477 43.1138 52.8942V2.99401C43.1138 1.34052 44.4543 0 46.1078 0H76.8463C78.4998 0 79.8403 1.34052 79.8403 2.99401V52.8942C79.8403 54.5477 78.4998 55.8882 76.8463 55.8882Z" fill="#484848"/>
<path d="M76.8463 55.8882H50.8982C49.2447 55.8882 47.9042 54.5477 47.9042 52.8942V2.99401C47.9042 1.34052 49.2447 0 50.8982 0H76.8463C78.4998 0 79.8403 1.34052 79.8403 2.99401V52.8942C79.8403 54.5477 78.4998 55.8882 76.8463 55.8882Z" fill="#484848"/>
<path d="M51.6966 33.4861C51.6966 32.6336 52.394 31.9362 53.2465 31.9362H72.103C72.9555 31.9362 73.6529 32.6336 73.6529 33.4861C73.6529 34.3386 72.9555 35.036 72.103 35.036H53.2465C52.394 35.0358 51.6966 34.3384 51.6966 33.4861ZM72.1028 37.619H53.2463C52.3938 37.619 51.6964 38.3164 51.6964 39.1689C51.6964 40.0214 52.3938 40.7188 53.2463 40.7188H72.1028C72.9553 40.7188 73.6527 40.0214 73.6527 39.1689C73.6527 38.3164 72.9553 37.619 72.1028 37.619Z" fill="#EDEDED"/>
<path d="M67.8406 49.7828H57.5083C56.4428 49.7828 55.571 48.9109 55.571 47.8454C55.571 46.78 56.4428 45.9081 57.5083 45.9081H67.8406C68.9061 45.9081 69.778 46.78 69.778 47.8454C69.778 48.9109 68.9063 49.7828 67.8406 49.7828ZM51.6965 4.92769C51.6965 4.30753 51.1939 3.80493 50.5738 3.80493H46.8313C46.2111 3.80493 45.7085 4.30753 45.7085 4.92769C45.7085 5.54785 46.2111 6.05044 46.8313 6.05044H50.5738C51.1939 6.05044 51.6965 5.54765 51.6965 4.92769ZM50.5738 9.97998H46.8313C46.2111 9.97998 45.7085 9.47739 45.7085 8.85723C45.7085 8.23707 46.2111 7.73447 46.8313 7.73447H50.5738C51.1939 7.73447 51.6965 8.23707 51.6965 8.85723C51.6965 9.47739 51.1939 9.97998 50.5738 9.97998ZM53.1935 17.0247C53.1935 11.7884 57.4382 7.54365 62.6746 7.54365C67.9109 7.54365 72.1556 11.7884 72.1556 17.0247C72.1556 20.1243 70.6682 22.8764 68.368 24.6063C68.1638 24.7598 57.1851 24.7598 56.9809 24.6063C54.681 22.8764 53.1935 20.1243 53.1935 17.0247Z" fill="#EDEDED"/>
<path d="M68.3683 22.9953V24.6064C66.7829 25.7991 64.8112 26.5059 62.6747 26.5059C60.538 26.5059 58.5665 25.7991 56.9811 24.6064V22.9953C56.9811 20.8989 58.6805 19.1995 60.7769 19.1995H64.5727C66.6689 19.1995 68.3683 20.8989 68.3683 22.9953Z" fill="#484848"/>
<path d="M59.3533 13.9802C59.3533 12.1458 60.8403 10.6588 62.6746 10.6588C64.5089 10.6588 65.996 12.1458 65.996 13.9802C65.996 15.8145 64.5089 17.3015 62.6746 17.3015C60.8403 17.3015 59.3533 15.8145 59.3533 13.9802ZM59.3533 22.9951C59.3533 24.1151 60.0026 25.1319 61.0159 25.6085C61.8984 26.0237 62.8551 26.3065 63.8606 26.4321C65.5389 26.2227 67.0808 25.5746 68.368 24.6063V22.9951C68.368 20.8987 66.6686 19.1993 64.5722 19.1993H63.1489C61.0527 19.1993 59.3533 20.8987 59.3533 22.9951Z" fill="#484848"/>
<path d="M65.996 13.9803C65.996 15.3966 65.1093 16.606 63.8608 17.0835C62.6123 16.606 61.7257 15.3966 61.7257 13.9803C61.7257 12.5639 62.6123 11.3545 63.8608 10.8771C65.1093 11.3545 65.996 12.5639 65.996 13.9803Z" fill="#484848"/>
</svg>
