<?xml version="1.0" encoding="UTF-8"?>
<svg fill="none" viewBox="0 0 100 98" xmlns="http://www.w3.org/2000/svg">
<path d="m83.633 83.329c-3.2269-6.911-10.164-11.328-17.791-11.328h-60.053c-3.6475-6.794-5.7363-14.55-5.7874-22.788-0.16866-27.136 21.549-49.095 48.685-49.212 15.264-0.065868 28.913 6.8623 37.925 17.764v49.294c0 3.0319 1.3794 5.8992 3.7484 7.7914-1.9269 3.0724-4.1862 5.9155-6.7271 8.4788z" fill="#FFC107"/>
<path d="m39.72 17.765h46.891c6.9916 8.4577 11.193 19.307 11.193 31.138 0 9.5323-2.7274 18.428-7.4443 25.948h-50.64c-2.2048 0-3.992-1.7872-3.992-3.992v-49.102c0-2.2048 1.7872-3.9921 3.992-3.9921z" fill="#484848"/>
<path d="m11.673 80.612c-2.2529-2.6423-4.2294-5.5275-5.8848-8.6109v-14.316c0-2.2048 1.7872-3.9921 3.992-3.9921h4.8694v25.827c0 1.5719-1.9569 2.2885-2.9766 1.0922z" fill="#484848"/>
<path d="m11.577 80.499v-22.814c0-2.2047 1.7872-3.992 3.992-3.992h64.072c2.2048 0 3.992 1.7873 3.992 3.992v25.645c-8.8613 8.9389-21.149 14.475-34.73 14.475-14.962 0-28.355-6.7198-37.325-17.306z" fill="#484848"/>
<path d="m11.876 57.684h-6.0878v-3.992c0-2.2048 1.7872-3.9921 3.992-3.9921h2.0958c2.2048 0 3.992 1.7873 3.992 3.9921s-1.7872 3.992-3.992 3.992z" fill="#484848"/>
<path d="m44.711 57.684h-33.134v-3.992c0-2.2048 1.7872-3.9921 3.992-3.9921h25.15c2.2048 0 3.992 1.7873 3.992 3.9921v3.992z" fill="#484848"/>
<path d="m11.851 53.693h-6.0628v-7.984c0-2.2048 1.7872-3.992 3.992-3.992h5.7884c2.2048 0 3.992 1.7872 3.992 3.992v0.2744c0 4.2579-3.4517 7.7096-7.7096 7.7096z" fill="#EDEDED"/>
<path d="m40.186 53.693h-28.609v-7.984c0-2.2048 1.7872-3.992 3.992-3.992h20.625c2.2048 0 3.992 1.7872 3.992 3.992v7.984z" fill="#EDEDED"/>
<g clip-path="url(#a)" fill="#484848">
<path d="m12.999 49.902c1.1038 0 1.9986-0.8842 1.9986-1.975s-0.8948-1.975-1.9986-1.975-1.9986 0.8842-1.9986 1.975 0.8948 1.975 1.9986 1.975z"/>
<path d="m21.992 49.902c1.1038 0 1.9986-0.8842 1.9986-1.975s-0.8948-1.975-1.9986-1.975-1.9986 0.8842-1.9986 1.975 0.8948 1.975 1.9986 1.975z"/>
<path d="m30.986 49.902c1.1038 0 1.9986-0.8842 1.9986-1.975s-0.8948-1.975-1.9986-1.975-1.9986 0.8842-1.9986 1.975 0.8948 1.975 1.9986 1.975z"/>
</g>
<path d="m75.649 64.671v25.178c-4.8026 3.1435-10.192 5.4648-15.968 6.7642v-31.942c0-0.5511 0.4469-0.998 0.998-0.998h13.972c0.5513 0 0.998 0.4469 0.998 0.998zm-20.958-0.998h-35.928c-0.5511 0-0.998 0.4469-0.998 0.998v17.964c0 0.5511 0.4469 0.998 0.998 0.998h35.928c0.551 0 0.998-0.4469 0.998-0.998v-17.964c0-0.5511-0.4468-0.998-0.998-0.998zm-21.956 23.952h-13.702c4.3722 3.3776 9.3321 6.0311 14.7 7.781v-6.783c0-0.5511-0.4467-0.998-0.998-0.998zm21.956 0h-15.968c-0.5511 0-0.998 0.4469-0.998 0.998v7.8984c3.5898 0.8393 7.3319 1.2832 11.178 1.2832 2.3028 0 4.5685-0.1592 6.7865-0.467v-8.7146c0-0.5511-0.4468-0.998-0.998-0.998z" fill="#EDEDED"/>
<path d="m83.633 74.85h-43.912c-2.2048 0-3.992-1.7872-3.992-3.992v-29.142h43.912c2.2047 0 3.992 1.7872 3.992 3.992v29.142z" fill="#484848"/>
<path d="m83.633 45.709v29.142h-37.924c-2.2048 0-3.992-1.7872-3.992-3.992v-29.142h37.924c2.2048 0 3.992 1.7872 3.992 3.992z" fill="#484848"/>
<path d="m45.708 25.749c0-1.1024 0.8936-1.996 1.996-1.996h21.956c1.1024 0 1.996 0.8936 1.996 1.996s-0.8936 1.996-1.996 1.996h-21.956c-1.1024 0-1.996-0.8936-1.996-1.996zm37.924 5.988h-35.928c-1.1024 0-1.996 0.8936-1.996 1.996s0.8936 1.996 1.996 1.996h35.928c1.1024 0 1.996-0.8936 1.996-1.996s-0.8936-1.996-1.996-1.996z" fill="#EDEDED"/>
<path d="m65.669 69.448c0 1.1024-0.8936 1.996-1.996 1.996s-1.996-0.8936-1.996-1.996 0.8936-1.996 1.996-1.996 1.996 0.8936 1.996 1.996zm-9.9801-1.996c-1.1024 0-1.996 0.8936-1.996 1.996s0.8936 1.996 1.996 1.996 1.996-0.8936 1.996-1.996-0.8936-1.996-1.996-1.996zm-7.984 0c-1.1024 0-1.996 0.8936-1.996 1.996s0.8936 1.996 1.996 1.996 1.996-0.8936 1.996-1.996-0.8936-1.996-1.996-1.996zm27.944-25.735c0-1.1024-0.8936-1.996-1.996-1.996h-25.948c-1.1024 0-1.996 0.8936-1.996 1.996s0.8936 1.996 1.996 1.996h25.948c1.1024 0 1.996-0.8936 1.996-1.996zm-9.98 7.9841c0-1.1024-0.8936-1.9961-1.996-1.9961h-15.968c-1.1024 0-1.996 0.8937-1.996 1.9961s0.8936 1.996 1.996 1.996h15.968c1.1024 0 1.996-0.8936 1.996-1.996zm23.952 0c0-1.1024-0.8936-1.9961-1.996-1.9961h-13.972c-1.1024 0-1.996 0.8937-1.996 1.9961s0.8936 1.996 1.996 1.996h13.972c1.1024 0 1.996-0.8936 1.996-1.996zm1.996-7.9841c0-1.1024-0.8936-1.996-1.996-1.996h-7.9841c-1.1024 0-1.996 0.8936-1.996 1.996s0.8936 1.996 1.996 1.996h7.9841c1.1024 0 1.996-0.8936 1.996-1.996z" fill="#EDEDED"/>
<path d="m78.144 65.669h-4.0918c-2.2048 0-3.9921-1.7872-3.9921-3.992s1.7873-3.992 3.9921-3.992h4.0918c2.2048 0 3.992 1.7872 3.992 3.992s-1.7872 3.992-3.992 3.992z" fill="#EDEDED"/>
<path d="m96.008 65.669h-17.964c-2.2048 0-3.992-1.7872-3.992-3.992s1.7872-3.992 3.992-3.992h17.964c2.2048 0 3.992 1.7872 3.992 3.992s-1.7872 3.992-3.992 3.992z" fill="#EDEDED"/>
<path d="m29.944 17.972c0 7.7165-6.2555 13.972-13.972 13.972-7.7166 0-13.972-6.2555-13.972-13.972 0-7.7166 6.2555-13.972 13.972-13.972 7.7165 0 13.972 6.2555 13.972 13.972z" fill="#484848"/>
<path d="m21.636 19.636-7.2282 7.2281c-0.7794 0.7795-2.0433 0.7795-2.8227 0-0.7795-0.7794-0.7795-2.0433 0-2.8227l5.8167-5.8168-5.8167-5.8168c-0.7795-0.7794-0.7795-2.0433 0-2.8227 0.7794-0.77944 2.0433-0.77944 2.8227 0l7.2282 7.2281c0.7794 0.7795 0.7794 2.0433 0 2.8228z" fill="#EDEDED"/>
<defs>
<clipPath id="a">
<rect transform="translate(11 45.902)" width="22" height="4" fill="#fff"/>
</clipPath>
</defs>
</svg>
