<?xml version="1.0" encoding="UTF-8"?>
<svg viewBox="0 0 95 95" xmlns="http://www.w3.org/2000/svg">
<path d="m2.6317 64.49h89.737c1.7032-4.6823 2.6317-9.7119 2.6317-14.95 0-25.107-21.266-45.459-47.5-45.459s-47.5 20.353-47.5 45.459c0 5.2378 0.92867 10.267 2.6317 14.95z" fill="#FFC107"/>
<path d="m2.6317 14.705v49.786c1.6194 4.4521 3.9419 8.589 6.8398 12.289l7.7886 7.8148c8.2143 6.499 18.75 10.406 30.24 10.406 12.084 0 23.111-4.3197 31.493-11.432l6.6649-6.9563c2.8372-3.6575 5.115-7.7362 6.71-12.121v-49.786h-89.737z" fill="#484848"/>
<path d="m24.802 9.55c0 3.0516-2.5849 5.5256-5.7736 5.5256h73.34v-5.5256h-67.566z" fill="#484848"/>
<path d="m2.6318 9.55v5.5256h16.785c3.1887 0 5.7736-2.4739 5.7736-5.5256h-22.558z" fill="#484848"/>
<path d="m17.84 9.8803c-0.1628-0.10743-0.3012-0.21802-0.4216-0.33027h-14.787v5.5256h16.785c-3.4828-1.589-1.5763-5.1953-1.5763-5.1953z" fill="#484848"/>
<path d="m89.064 0h-83.128c-1.8248 0-3.3042 1.4157-3.3042 3.1623v6.7181h89.737v-6.7181c0-1.7466-1.4792-3.1623-3.304-3.1623z" fill="#EDEDED"/>
<path d="m17.39 0h-11.454c-1.8248 0-3.3042 1.4157-3.3042 3.1623v6.7181h15.209c-1.9409-1.2799-0.6668-2.9916-0.6668-2.9916s1.5002-2.4616 0-3.8972c-1.5002-1.4358 0.2166-2.9916 0.2166-2.9916z" fill="#EDEDED"/>
<path d="m11.193 6.8887c1.1245 0 2.036-0.87242 2.036-1.9486s-0.9115-1.9486-2.036-1.9486-2.0361 0.87242-2.0361 1.9486 0.91163 1.9486 2.0361 1.9486z" fill="#484848"/>
<path d="m17.174 6.8887c1.1245 0 2.0361-0.87242 2.0361-1.9486s-0.9116-1.9486-2.0361-1.9486-2.0361 0.87242-2.0361 1.9486 0.9116 1.9486 2.0361 1.9486z" fill="#484848"/>
<path d="m23.154 6.8887c1.1245 0 2.0361-0.87242 2.0361-1.9486s-0.9116-1.9486-2.0361-1.9486-2.0361 0.87242-2.0361 1.9486 0.9116 1.9486 2.0361 1.9486z" fill="#484848"/>
<path d="m74.062 6.3318h-42.954c-0.8031 0-1.4541-0.62288-1.4541-1.3916 0-0.76873 0.651-1.3916 1.4541-1.3916h42.954c0.803 0 1.4541 0.62288 1.4541 1.3916 0 0.76872-0.6511 1.3916-1.4541 1.3916z" fill="#484848"/>
<path d="m84.54 6.3318h-3.7068c-0.803 0-1.454-0.62288-1.454-1.3916 0-0.76873 0.651-1.3916 1.454-1.3916h3.7068c0.803 0 1.454 0.62288 1.454 1.3916 0 0.76872-0.651 1.3916-1.454 1.3916z" fill="#484848"/>
<path d="m55.722 21.248h-45.015c-0.76196 0-1.3794 0.5912-1.3794 1.3202v29.977h47.774v-29.977c0-0.7292-0.6177-1.3202-1.3796-1.3202z" fill="#EDEDED"/>
<path d="m10.707 21.248c-0.76196 0-1.3794 0.5912-1.3794 1.3202v29.977h22.95c0.487-0.2818 0.9368-0.3711 0.9368-0.3711-2.8205-5.3103 2.5454-7.6621 2.5454-7.6621-4.0879-1.7161-2.5454-5.2061-2.5454-5.2061l-2.2081-5.53c-3.8329 0-3.3909-3.23-3.3909-3.23-8.6455-1.1786-6.4974-9.298-6.4974-9.298h-10.411z" fill="#EDEDED"/>
<path d="m9.3272 52.175v7.2426c0 0.7292 0.61769 1.3202 1.3794 1.3202h45.015c0.7619 0 1.3794-0.5912 1.3794-1.3202v-7.2426h-47.774z" fill="#484848"/>
<path d="m9.3272 59.417c0 0.7292 0.61769 1.3204 1.3794 1.3204h19.032c-0.8024-0.768 0-1.548 0-1.548s1.3357-2.7333 1.3357-4.6632 2.14-2.3516 2.14-2.3516h-23.887v7.2424z" fill="#484848"/>
<path d="m77.141 34.246c0-0.7244 0.6136-1.3115 1.3703-1.3115h7.1613v-10.366c0-0.7292-0.6177-1.3202-1.3795-1.3202h-19.363c-0.7619 0-1.3794 0.5912-1.3794 1.3202v14.018c0 0.7292 0.6177 1.3202 1.3794 1.3202h12.211v-3.6605z" fill="#EDEDED"/>
<path d="m77.141 57.077c0-0.7244 0.6136-1.3114 1.3703-1.3114h7.1613v-10.366c0-0.7292-0.6177-1.3201-1.3795-1.3201h-19.363c-0.7619 0-1.3794 0.5911-1.3794 1.3201v14.018c0 0.7292 0.6177 1.3202 1.3794 1.3202h12.211v-3.6605z" fill="#EDEDED"/>
<path d="m85.673 76.596v-8.3655c0-0.7292-0.6177-1.3204-1.3795-1.3204h-19.363c-0.7619 0-1.3794 0.5912-1.3794 1.3204v14.018c0 0.7292 0.6177 1.3202 1.3794 1.3202h12.211v-3.6605c0-0.7243 0.6136-1.3114 1.3703-1.3114h5.5185c0.5665-0.6516 1.1142-1.3187 1.6428-2.0004z" fill="#EDEDED"/>
<path d="m72.878 36.587v-14.018c0-0.7292 0.6177-1.3202 1.3795-1.3202h-9.3272c-0.762 0-1.3795 0.5912-1.3795 1.3202v14.018c0 0.7292 0.6177 1.3202 1.3795 1.3202h9.3272c-0.7618 0-1.3795-0.5912-1.3795-1.3202z" fill="#EDEDED"/>
<path d="m72.878 82.248v-14.018c0-0.7292 0.6177-1.3204 1.3795-1.3204h-9.3272c-0.762 0-1.3795 0.5912-1.3795 1.3204v14.018c0 0.7292 0.6177 1.3202 1.3795 1.3202h9.3272c-0.7618 2e-4 -1.3795-0.591-1.3795-1.3202z" fill="#EDEDED"/>
<path d="m45.442 71.468h-10.469c-0.803 0-1.4541-0.6229-1.4541-1.3917 0-0.7687 0.6511-1.3916 1.4541-1.3916h10.469c0.8031 0 1.4541 0.6229 1.4541 1.3916 0 0.7688-0.651 1.3917-1.4541 1.3917z" fill="#EDEDED"/>
<path d="m52.422 76.956h-17.449c-0.803 0-1.4541-0.6229-1.4541-1.3916 0-0.7688 0.6511-1.3916 1.4541-1.3916h17.449c0.803 0 1.4541 0.6228 1.4541 1.3916 0 0.7687-0.6509 1.3916-1.4541 1.3916z" fill="#EDEDED"/>
<path d="m52.422 82.444h-17.449c-0.803 0-1.4541-0.6229-1.4541-1.3916 0-0.7686 0.6511-1.3916 1.4541-1.3916h17.449c0.803 0 1.4541 0.623 1.4541 1.3916 0 0.7685-0.6509 1.3916-1.4541 1.3916z" fill="#EDEDED"/>
<path d="m17.585 57.848h-2.0607c-0.8031 0-1.4541-0.6229-1.4541-1.3916 0-0.7688 0.651-1.3916 1.4541-1.3916h2.0607c0.803 0 1.4541 0.6228 1.4541 1.3916 0 0.7687-0.6511 1.3916-1.4541 1.3916z" fill="#EDEDED"/>
<path d="m50.677 57.848h-20.938c-0.803 0-1.454-0.6229-1.454-1.3916 0-0.7688 0.651-1.3916 1.454-1.3916h20.938c0.803 0 1.4541 0.6228 1.4541 1.3916 0 0.7687-0.6509 1.3916-1.4541 1.3916z" fill="#EDEDED"/>
<path d="m29.739 57.848h-7.1251c-0.803 0-1.4541-0.6229-1.4541-1.3916 0-0.7688 0.6511-1.3916 1.4541-1.3916h7.1251c0.8031 0 1.4541 0.6228 1.4541 1.3916 0 0.7687-0.651 1.3916-1.4541 1.3916z" fill="#EDEDED"/>
<path d="m29.738 59.189c-0.803 0-1.4541-0.6228-1.4541-1.3916v-2.7214c0-0.7687 0.6511-1.3916 1.4541-1.3916s1.4541 0.6229 1.4541 1.3916v2.7214c0 0.7688-0.6511 1.3916-1.4541 1.3916z" fill="#EDEDED"/>
<path d="m78.124 32.564c-0.7569 0-1.3703 0.587-1.3703 1.3114v4.0318h7.5399c0.7619 0 1.3794-0.5912 1.3794-1.3202v-4.023h-7.549z" fill="#EDEDED"/>
<path d="m78.124 55.394c-0.7569 0-1.3703 0.5873-1.3703 1.3115v4.0317h7.5399c0.7619 0 1.3794-0.5911 1.3794-1.3202v-4.0228h-7.549v-2e-4z" fill="#EDEDED"/>
<path d="m78.124 78.226c-0.7569 0-1.3703 0.5871-1.3703 1.3115v4.0315h2.2393c1.9322-1.6391 3.724-3.4259 5.3554-5.3432h-6.2244v2e-4z" fill="#EDEDED"/>
<path d="m41.499 38.624c1.1033-4.386-1.7175-8.7975-6.3004-9.8534s-9.1925 1.6437-10.296 6.0297 1.7175 8.7976 6.3004 9.8535c4.583 1.0559 9.1925-1.6437 10.296-6.0298z" fill="#484848"/>
<path d="m33.214 39.306-2.2081-5.53c-3.8329 0-3.3909-3.23-3.3909-3.23-1.7993 1.4979-2.9383 3.7035-2.9383 6.1652 0 4.5123 3.8222 8.1703 8.5371 8.1703 0.8866 0 1.7414-0.1295 2.5454-0.3694-4.0875-1.7161-2.5452-5.2061-2.5452-5.2061z" fill="#484848"/>
<path d="m36.589 35.927-4.4008-2.3609c-0.6264-0.336-1.3992 0.0972-1.3992 0.7845v4.7218c0 0.6872 0.7728 1.1205 1.3992 0.7845l4.4008-2.3609c0.6404-0.3437 0.6404-1.2256 0-1.569z" fill="#fff"/>
<path d="m35.837 35.518-2.1883-1.174c-0.3116-0.1671-0.6958 0.0485-0.6958 0.3901v2.3479c0 0.3418 0.3842 0.5572 0.6958 0.39l2.1883-1.174c0.3183-0.1707 0.3183-0.6093 0-0.78z" fill="#fff"/>
<path d="m19.339 65.658c-5.5293 0-10.012 4.2898-10.012 9.5816 0 0.519 0.04556 1.0276 0.12873 1.5243 1.2259 1.5665 2.5562 3.0535 3.9793 4.454l2e-4 -4e-4 5.6139 2.9998c0.0965 3e-3 0.1929 0.0065 0.29 0.0065 3.9789 0 7.4613-2.596 7.4613-2.596 1.5859-1.6955 2.5505-3.9338 2.5505-6.388-2e-4 -5.292-4.4828-9.5818-10.012-9.5818z" fill="#EDEDED"/>
<path d="m29.13 77.237c-3.7446 1.7689-6.3689-0.8234-6.3689-0.8234s-1.3282-8.4957-2.9126-8.8796c-1.126-0.2727-1.1179-1.2951-1.019-1.864-5.2926 0.2539-9.5024 4.4411-9.5024 9.5694 0 0.519 0.04556 1.0276 0.12873 1.5243 1.2259 1.5666 2.5562 3.0536 3.9793 4.4541l2e-4 -4e-4 5.6139 2.9997c0.0965 3e-3 0.1929 0.0065 0.29 0.0065 3.9789 0 7.4613-2.596 7.4613-2.596 1.1428-1.222 1.9605-2.727 2.3295-4.3906z" fill="#EDEDED"/>
<path d="m16.662 81.261c0.7637 0.5675 1.7063 0.8759 2.6768 0.8759 0.9706 0 1.9132-0.3082 2.6769-0.8759 0.3544-0.2635 0.7237-0.588 1.0803-0.9697-0.2057-0.0635-0.4151-0.1217-0.6295-0.1731-0.1299-0.0312-0.2439-0.106-0.3176-0.2052-0.3397-0.4585-0.4337-1.1673-0.4521-1.6813-0.2383 0.2655-0.4882 0.4876-0.7271 0.6652-0.9579 0.7119-2.3054 0.711-3.2621 0-0.2389-0.1776-0.4888-0.3997-0.7271-0.6652-0.019 0.5255-0.1167 1.2545-0.475 1.7115-0.061 0.0779-0.1553 0.1418-0.2683 0.1685-0.2229 0.0529-0.4412 0.1132-0.6561 0.1796 0.357 0.3817 0.7263 0.7062 1.0809 0.9697z" fill="#484848"/>
<path d="m19.208 79.426c-0.5322-0.0249-1.0578-0.1998-1.5-0.5286-0.2389-0.1776-0.4888-0.3997-0.727-0.6652-0.019 0.5255-0.1167 1.2545-0.475 1.7115-0.0611 0.0779-0.1553 0.1417-0.2684 0.1684-0.2229 0.0529-0.4412 0.1132-0.656 0.1795 0.3567 0.3816 0.7258 0.7062 1.0804 0.9698 0.4851 0.3605 1.0427 0.6155 1.6334 0.7541 0.6175-0.8782 0.8395-1.87 0.9126-2.5895z" fill="#484848"/>
<path d="m25.098 81.138c-0.6858-0.3702-1.394-0.6709-2.1575-0.893-0.3507 0.3813-0.716 0.7023-1.0657 0.9622-0.7236 0.5377-1.6164 0.8298-2.5359 0.8298-0.9196 0-1.8124-0.2921-2.5359-0.8298-0.3498-0.2599-0.715-0.5809-1.0656-0.9622-0.7611 0.2219-1.4738 0.5239-2.1574 0.893-0.0526 0.0282-0.0999 0.0544-0.1449 0.079 1.2168 1.1983 2.4995 2.3346 3.8471 3.3993 0.6641 0.1328 1.3515 0.2046 2.0569 0.2046 2.9649 0 5.6284-1.2339 7.4617-3.1938-0.266-0.079-0.5576-0.1338-0.8777-0.1588-0.3046-0.024-0.4665-0.1368-0.8251-0.3303z" fill="#484848"/>
<path d="m18.55 67.554c-2.3683 0.3087-2.5934 1.5938-2.5944 2.0653-2e-4 0.0989-0.0574 0.1906-0.1505 0.2338-1.2318 0.5735-0.5676 3.3378-0.5676 3.3378 0.1237 8e-3 0.3092 0.1095 0.4058 0.1542 0.0236-0.1408 0.0622-0.2796 0.1167-0.4136 0.0415-0.1022 0.0934-0.2054 0.1584-0.3028 0.1126-0.1692 0.164-0.3687 0.1487-0.5681-0.0442-0.5767-0.0791-1.6594 0.7163-2.0019 0.6738-0.2902 1.5005-0.1221 2.0274 0.0456 0.3424 0.109 0.7131 0.109 1.0555 0 0.5271-0.1677 1.3536-0.3358 2.0275-0.0456 0.7932 0.3416 0.7606 1.4187 0.7168 1.9969-0.0151 0.2009 0.0347 0.4026 0.1483 0.5731 0.0671 0.1006 0.1202 0.2073 0.1625 0.3127 0.0525 0.1309 0.0897 0.2662 0.1128 0.4037 0.1218-0.0564 0.3517-0.1716 0.5006-0.1514 0.0182-0.6045 0.0766-1.256 0.0766-1.256 0.7018-3.2897-2.5113-4.7162-5.0614-4.3837z" fill="#484848"/>
<path d="m18.55 67.554c-2.3683 0.3087-2.5934 1.5938-2.5944 2.0653-2e-4 0.0989-0.0574 0.1905-0.1505 0.2338-1.2318 0.5735-0.5676 3.3378-0.5676 3.3378 0.1237 0.0079 0.3092 0.1094 0.4058 0.1542 0.0236-0.1409 0.0622-0.2797 0.1167-0.4136 0.0415-0.1023 0.0934-0.2054 0.1584-0.3028 0.1126-0.1693 0.164-0.3687 0.1487-0.5682-0.0442-0.5767-0.0791-1.6593 0.7163-2.0018 0.6738-0.2902 1.5005-0.1221 2.0274 0.0456 0.1443 0.0458 0.2935 0.0712 0.4436 0.0785-0.0231-0.0377-0.0475-0.0752-0.075-0.1123-1.0161-1.3667 0.3963-2.3625 0.6688-2.5366-0.437-0.0414-0.8765-0.0349-1.2982 0.0201z" fill="#484848"/>
<path d="m23.745 73.272c-0.1844-0.1618-0.5518-0.0798-0.7108 0.0193 0.0349 0.2074 0.0369 0.4197 0.0068 0.6292l-0.1875 1.3068c0 0.1054-0.0035 0.2087-0.0099 0.3102 0.4572 0.1319 0.6842-0.2609 0.7226-0.5303 0.0165-0.1159 0.0434-0.2304 0.0807-0.3419 0.1215-0.3635 0.5603-0.9879 0.0981-1.3933z" fill="#484848"/>
<path d="m14.933 73.272c0.1843-0.1618 0.5519-0.0798 0.7107 0.0193-0.0349 0.2074-0.0368 0.4197-0.0068 0.6292l0.1875 1.3068c0 0.1054 0.0035 0.2087 0.0099 0.3102-0.4572 0.1319-0.6842-0.2609-0.7226-0.5303-0.0165-0.1159-0.0434-0.2304-0.0806-0.3419-0.1216-0.3635-0.5603-0.9879-0.0981-1.3933z" fill="#484848"/>
<path d="m22.978 72.888c-0.0422-0.1054-0.0953-0.2121-0.1624-0.3127-0.1136-0.1705-0.1635-0.372-0.1483-0.5731 0.0438-0.5782 0.0203-1.7091-0.7728-2.0505-0.6738-0.2902-1.5002-0.1221-2.0274 0.0456-0.3424 0.1089-0.7133 0.1089-1.0557 0-0.5271-0.1677-1.3536-0.3356-2.0273-0.0456-0.7953 0.3425-0.8166 1.4788-0.7724 2.0555 0.0153 0.1994-0.0361 0.3991-0.1487 0.5681-0.065 0.0974-0.1169 0.2008-0.1584 0.3028-0.1348 0.3314-0.1741 0.6906-0.1235 1.0424l0.1875 1.307c0 1.8791 1.0481 3.1564 1.9397 3.8188 0.4653 0.3458 1.0396 0.5336 1.6311 0.5336s1.1657-0.188 1.6311-0.5336c0.8914-0.6626 1.9395-1.9397 1.9395-3.8188l0.1875-1.3068c0.05-0.3483 0.0122-0.7041-0.1195-1.0327z" fill="#484848"/>
<path d="m20.312 79.046c-0.8914-0.6626-1.9395-1.9397-1.9395-3.8187l-0.1875-1.307c-0.0504-0.3518-0.0113-0.7112 0.1235-1.0424 0.0415-0.1021 0.0934-0.2053 0.1584-0.3029 0.1126-0.1692 0.164-0.3686 0.1487-0.5681-0.04-0.5214-0.0262-1.5003 0.5646-1.9362-0.1247-0.0113-0.2486-0.0354-0.3686-0.0736-0.5272-0.1678-1.3537-0.3357-2.0274-0.0457-0.7953 0.3425-0.8166 1.4788-0.7724 2.0555 0.0153 0.1995-0.036 0.3991-0.1487 0.5681-0.0649 0.0975-0.1169 0.2008-0.1584 0.3029-0.1347 0.3313-0.1741 0.6906-0.1235 1.0424l0.1875 1.307c0 1.879 1.0481 3.1563 1.9397 3.8187 0.4653 0.3459 1.0396 0.5336 1.6311 0.5336 0.4587 0 0.9068-0.1133 1.3019-0.3254-0.1146-0.0612-0.2249-0.1305-0.3294-0.2082z" fill="#484848"/>
<path d="m72.878 59.417v-14.018c0-0.7292 0.6177-1.3204 1.3795-1.3204h-9.3272c-0.762 0-1.3795 0.5912-1.3795 1.3204v14.018c0 0.7292 0.6177 1.3203 1.3795 1.3203h9.3272c-0.7618 0-1.3795-0.5911-1.3795-1.3203z" fill="#EDEDED"/>
</svg>
