<?xml version="1.0" ?><!DOCTYPE svg  PUBLIC '-//W3C//DTD SVG 1.1//EN'  'http://www.w3.org/Graphics/SVG/1.1/DTD/svg11.dtd'><svg height="512px" style="enable-background:new 0 0 512 512;" version="1.1" viewBox="0 0 512 512" width="512px" xml:space="preserve" xmlns="http://www.w3.org/2000/svg" xmlns:xlink="http://www.w3.org/1999/xlink"><g id="file__x2C__ai__x2C__illustrator__x2C_"><g id="Layer_93"><g><g><path d="M428.136,454.297H83.865c-2.773,0-5.022-2.244-5.022-5.02V24.185c0-2.775,2.249-5.021,5.022-5.021h344.271      c2.774,0,5.021,2.246,5.021,5.021v425.093C433.156,452.053,430.91,454.297,428.136,454.297z M88.886,444.256h334.228V29.206      H88.886V444.256z"/></g><g><path d="M387.789,179.67H124.215c-9.218,0-16.721-7.554-16.721-16.836V70.549c0-9.282,7.502-16.832,16.721-16.832h263.574      c9.217,0,16.716,7.549,16.716,16.832v92.285C404.505,172.116,397.006,179.67,387.789,179.67z M124.215,63.759      c-3.684,0-6.678,3.047-6.678,6.79v92.285c0,3.747,2.994,6.794,6.678,6.794h263.574c3.677,0,6.674-3.047,6.674-6.794V70.549      c0-3.742-2.997-6.79-6.674-6.79H124.215z"/></g><g><path d="M222.015,149.548h-12.137v-10.783h12.137V149.548z M267.04,136.403h-21.344l-4.094,13.145h-12.425l21.052-61.423h12.424      l20.906,61.423H271.13L267.04,136.403z M248.763,126.804h15.351l-7.601-24.36h-0.292L248.763,126.804z M302.121,149.548h-12.132      V88.125h12.132V149.548z"/></g><g><path d="M390.855,474.082H121.29c-2.773,0-5.022-2.248-5.022-5.023c0-2.773,2.249-5.02,5.022-5.02h269.565      c2.776,0,5.021,2.246,5.021,5.02C395.877,471.834,393.632,474.082,390.855,474.082z"/></g><g><path d="M366.884,492.836H145.116c-2.772,0-5.021-2.246-5.021-5.021s2.249-5.021,5.021-5.021h221.768      c2.775,0,5.021,2.246,5.021,5.021S369.659,492.836,366.884,492.836z"/></g><g><path d="M351.68,306.057v-34.258h-33.769v11.373h-33.769v-22.744h-56.28v22.744h-33.774v-11.373H160.32v34.258h33.768v-11.52      h19.884c-25.585,15.064-42.396,43.264-42.396,73.973c0,3.098,2.488,5.758,5.555,5.758c3.218,0,5.701-2.66,5.701-5.758      c0-29.826,18.131-56.844,45.03-68.217v17.133h56.28v-17.133c26.898,11.373,45.023,38.391,45.023,68.217      c0,3.098,2.635,5.758,5.701,5.758c3.074,0,5.702-2.66,5.702-5.758c0-30.709-16.812-58.908-42.542-73.973h19.884v11.52H351.68z       M182.833,294.537h-11.256v-11.365h11.256V294.537z M272.887,306.057h-33.769v-34.258h33.769V306.057z M329.166,283.172h11.403      v11.365h-11.403V283.172z"/></g></g></g></g><g id="Layer_1"/></svg>